<svg width="639" height="45" viewBox="0 0 639 45" fill="none" xmlns="http://www.w3.org/2000/svg">
<path d="M4.7 2.18C6.47333 2.18 7.84667 2.54667 8.82 3.28C9.80667 4.01333 10.3 5.11333 10.3 6.58C10.3 8.11333 9.80667 9.26667 8.82 10.04C7.83333 10.8 6.52 11.18 4.88 11.18H3.26V16H0.62V2.18H4.7ZM4.68 9.2C5.62667 9.2 6.34 9.00667 6.82 8.62C7.3 8.22 7.54 7.54 7.54 6.58C7.54 4.94 6.58667 4.12 4.68 4.12H3.26V9.2H4.68ZM19.1217 13.2C19.1217 13.6133 19.1817 13.92 19.3017 14.12C19.4351 14.3067 19.6417 14.4533 19.9217 14.56L19.3817 16.26C18.7817 16.2067 18.2884 16.06 17.9017 15.82C17.5284 15.58 17.2417 15.2133 17.0417 14.72C16.6817 15.2533 16.2284 15.6533 15.6817 15.92C15.1484 16.1733 14.5484 16.3 13.8817 16.3C12.8284 16.3 11.9951 16 11.3817 15.4C10.7684 14.8 10.4617 14.0133 10.4617 13.04C10.4617 11.8933 10.8751 11.02 11.7017 10.42C12.5417 9.80667 13.7351 9.5 15.2817 9.5H16.6017V8.9C16.6017 8.22 16.4417 7.74667 16.1217 7.48C15.8151 7.2 15.3151 7.06 14.6217 7.06C13.8484 7.06 12.9151 7.24667 11.8217 7.62L11.2217 5.88C12.5417 5.37333 13.8217 5.12 15.0617 5.12C17.7684 5.12 19.1217 6.33333 19.1217 8.76V13.2ZM14.5617 14.44C15.4284 14.44 16.1084 14.0067 16.6017 13.14V11H15.5417C13.8884 11 13.0617 11.6133 13.0617 12.84C13.0617 13.3467 13.1884 13.74 13.4417 14.02C13.6951 14.3 14.0684 14.44 14.5617 14.44ZM25.2397 5.12C26.373 5.12 27.3197 5.38 28.0797 5.9C28.853 6.42 29.2397 7.12667 29.2397 8.02C29.2397 8.62 29.053 9.11333 28.6797 9.5C28.3197 9.87333 27.7597 10.1533 26.9997 10.34C27.933 10.4867 28.6264 10.7667 29.0797 11.18C29.5464 11.58 29.7797 12.16 29.7797 12.92C29.7797 14.0133 29.3397 14.8533 28.4597 15.44C27.593 16.0133 26.4597 16.3 25.0597 16.3C23.4197 16.3 22.013 15.8667 20.8397 15L22.0997 13.52C22.5664 13.8267 23.0197 14.0533 23.4597 14.2C23.8997 14.3333 24.3997 14.4 24.9597 14.4C26.3864 14.4 27.0997 13.8733 27.0997 12.82C27.0997 11.8733 26.3464 11.4 24.8397 11.4H23.2997L23.4597 9.64H24.6197C25.2464 9.64 25.7397 9.52667 26.0997 9.3C26.4597 9.06 26.6397 8.7 26.6397 8.22C26.6397 7.78 26.4797 7.46 26.1597 7.26C25.853 7.06 25.4397 6.96 24.9197 6.96C24.413 6.96 23.9664 7.02667 23.5797 7.16C23.193 7.29333 22.7997 7.49333 22.3997 7.76L21.2197 6.34C21.7797 5.92667 22.3864 5.62 23.0397 5.42C23.693 5.22 24.4264 5.12 25.2397 5.12ZM37.6802 5.12C39.0135 5.12 40.0002 5.60667 40.6402 6.58C41.2802 7.55333 41.6002 8.92 41.6002 10.68C41.6002 11.7733 41.4335 12.7467 41.1002 13.6C40.7802 14.44 40.3002 15.1 39.6602 15.58C39.0335 16.06 38.2868 16.3 37.4202 16.3C36.3002 16.3 35.4135 15.9133 34.7602 15.14V20.08L32.2002 20.36V5.42H34.4402L34.5802 6.72C34.9935 6.18667 35.4668 5.78667 36.0002 5.52C36.5335 5.25333 37.0935 5.12 37.6802 5.12ZM36.7002 14.34C38.1802 14.34 38.9202 13.1267 38.9202 10.7C38.9202 9.40667 38.7535 8.47333 38.4202 7.9C38.0868 7.32667 37.5868 7.04 36.9202 7.04C36.4935 7.04 36.0935 7.17333 35.7202 7.44C35.3468 7.69333 35.0268 8.04 34.7602 8.48V13.24C35.2535 13.9733 35.9002 14.34 36.7002 14.34ZM51.7389 13.2C51.7389 13.6133 51.7989 13.92 51.9189 14.12C52.0522 14.3067 52.2589 14.4533 52.5389 14.56L51.9989 16.26C51.3989 16.2067 50.9056 16.06 50.5189 15.82C50.1456 15.58 49.8589 15.2133 49.6589 14.72C49.2989 15.2533 48.8456 15.6533 48.2989 15.92C47.7656 16.1733 47.1656 16.3 46.4989 16.3C45.4456 16.3 44.6122 16 43.9989 15.4C43.3856 14.8 43.0789 14.0133 43.0789 13.04C43.0789 11.8933 43.4922 11.02 44.3189 10.42C45.1589 9.80667 46.3522 9.5 47.8989 9.5H49.2189V8.9C49.2189 8.22 49.0589 7.74667 48.7389 7.48C48.4322 7.2 47.9322 7.06 47.2389 7.06C46.4656 7.06 45.5322 7.24667 44.4389 7.62L43.8389 5.88C45.1589 5.37333 46.4389 5.12 47.6789 5.12C50.3856 5.12 51.7389 6.33333 51.7389 8.76V13.2ZM47.1789 14.44C48.0456 14.44 48.7256 14.0067 49.2189 13.14V11H48.1589C46.5056 11 45.6789 11.6133 45.6789 12.84C45.6789 13.3467 45.8056 13.74 46.0589 14.02C46.3122 14.3 46.6856 14.44 47.1789 14.44ZM59.9969 6.12C60.7569 6.12 61.4369 6.31333 62.0369 6.7C62.6369 7.08667 63.1035 7.65333 63.4369 8.4C63.7835 9.13333 63.9569 10.0067 63.9569 11.02C63.9569 12.1133 63.7502 13.06 63.3369 13.86C62.9369 14.6467 62.3702 15.2533 61.6369 15.68C60.9035 16.0933 60.0502 16.3 59.0769 16.3C57.5702 16.3 56.3702 15.7933 55.4769 14.78C54.5969 13.7533 54.1569 12.2 54.1569 10.12C54.1569 8.58667 54.2769 7.32667 54.5169 6.34C54.7702 5.35333 55.2035 4.54667 55.8169 3.92C56.4302 3.28 57.2902 2.78 58.3969 2.42C59.2102 2.15333 59.8502 1.92 60.3169 1.72C60.7835 1.50667 61.2902 1.23333 61.8369 0.899999L62.8169 2.62C62.3502 2.92667 61.8569 3.2 61.3369 3.44C60.8169 3.66667 60.1902 3.9 59.4569 4.14C58.8435 4.34 58.3502 4.57333 57.9769 4.84C57.6169 5.10667 57.3302 5.48667 57.1169 5.98C56.9035 6.46 56.7569 7.11333 56.6769 7.94C57.4635 6.72667 58.5702 6.12 59.9969 6.12ZM59.0569 14.36C59.7369 14.36 60.2702 14.12 60.6569 13.64C61.0569 13.1467 61.2569 12.3 61.2569 11.1C61.2569 9.99333 61.0969 9.21333 60.7769 8.76C60.4569 8.29333 59.9769 8.06 59.3369 8.06C58.8435 8.06 58.3769 8.19333 57.9369 8.46C57.5102 8.72667 57.1502 9.13333 56.8569 9.68V11.02C56.8569 12.1133 57.0502 12.9467 57.4369 13.52C57.8235 14.08 58.3635 14.36 59.0569 14.36ZM70.6803 5.12C72.2403 5.12 73.4536 5.62 74.3203 6.62C75.2003 7.60667 75.6403 8.96667 75.6403 10.7C75.6403 11.8067 75.4403 12.7867 75.0403 13.64C74.6403 14.48 74.067 15.1333 73.3203 15.6C72.5736 16.0667 71.687 16.3 70.6603 16.3C69.1003 16.3 67.8803 15.8067 67.0003 14.82C66.1203 13.82 65.6803 12.4467 65.6803 10.7C65.6803 9.59333 65.8803 8.62 66.2803 7.78C66.6803 6.94 67.2536 6.28667 68.0003 5.82C68.7603 5.35333 69.6536 5.12 70.6803 5.12ZM70.6803 7.06C69.147 7.06 68.3803 8.27333 68.3803 10.7C68.3803 11.9533 68.567 12.88 68.9403 13.48C69.327 14.0667 69.9003 14.36 70.6603 14.36C71.4203 14.36 71.987 14.06 72.3603 13.46C72.747 12.86 72.9403 11.94 72.9403 10.7C72.9403 9.46 72.747 8.54667 72.3603 7.96C71.987 7.36 71.427 7.06 70.6803 7.06ZM85.3122 5.42L84.9922 7.38H81.8922V16H79.3322V7.38H76.0522V5.42H85.3122ZM95.57 5.42L92.59 10.32L95.89 16H93.07L90.49 11.3H89.35V16H86.79V5.42H89.35V9.6H90.55L93.01 5.42H95.57ZM105.02 13.2C105.02 13.6133 105.08 13.92 105.2 14.12C105.333 14.3067 105.54 14.4533 105.82 14.56L105.28 16.26C104.68 16.2067 104.187 16.06 103.8 15.82C103.427 15.58 103.14 15.2133 102.94 14.72C102.58 15.2533 102.127 15.6533 101.58 15.92C101.047 16.1733 100.447 16.3 99.7802 16.3C98.7268 16.3 97.8935 16 97.2802 15.4C96.6668 14.8 96.3602 14.0133 96.3602 13.04C96.3602 11.8933 96.7735 11.02 97.6002 10.42C98.4402 9.80667 99.6335 9.5 101.18 9.5H102.5V8.9C102.5 8.22 102.34 7.74667 102.02 7.48C101.713 7.2 101.213 7.06 100.52 7.06C99.7468 7.06 98.8135 7.24667 97.7202 7.62L97.1202 5.88C98.4402 5.37333 99.7202 5.12 100.96 5.12C103.667 5.12 105.02 6.33333 105.02 8.76V13.2ZM100.46 14.44C101.327 14.44 102.007 14.0067 102.5 13.14V11H101.44C99.7868 11 98.9602 11.6133 98.9602 12.84C98.9602 13.3467 99.0868 13.74 99.3402 14.02C99.5935 14.3 99.9668 14.44 100.46 14.44ZM117.378 5.12C118.071 5.12 118.691 5.22 119.238 5.42C119.798 5.62 120.325 5.93333 120.818 6.36L119.678 7.9C119.318 7.63333 118.971 7.44 118.638 7.32C118.305 7.2 117.938 7.14 117.538 7.14C115.951 7.14 115.158 8.34667 115.158 10.76C115.158 11.9867 115.365 12.8733 115.778 13.42C116.191 13.9533 116.778 14.22 117.538 14.22C117.911 14.22 118.251 14.16 118.558 14.04C118.878 13.92 119.251 13.7267 119.678 13.46L120.818 15.08C119.818 15.8933 118.678 16.3 117.398 16.3C116.385 16.3 115.505 16.08 114.758 15.64C114.011 15.1867 113.438 14.5467 113.038 13.72C112.638 12.8933 112.438 11.92 112.438 10.8C112.438 9.68 112.638 8.69333 113.038 7.84C113.438 6.97333 114.011 6.30667 114.758 5.84C115.505 5.36 116.378 5.12 117.378 5.12ZM126.598 5.12C128.158 5.12 129.372 5.62 130.238 6.62C131.118 7.60667 131.558 8.96667 131.558 10.7C131.558 11.8067 131.358 12.7867 130.958 13.64C130.558 14.48 129.985 15.1333 129.238 15.6C128.492 16.0667 127.605 16.3 126.578 16.3C125.018 16.3 123.798 15.8067 122.918 14.82C122.038 13.82 121.598 12.4467 121.598 10.7C121.598 9.59333 121.798 8.62 122.198 7.78C122.598 6.94 123.172 6.28667 123.918 5.82C124.678 5.35333 125.572 5.12 126.598 5.12ZM126.598 7.06C125.065 7.06 124.298 8.27333 124.298 10.7C124.298 11.9533 124.485 12.88 124.858 13.48C125.245 14.0667 125.818 14.36 126.578 14.36C127.338 14.36 127.905 14.06 128.278 13.46C128.665 12.86 128.858 11.94 128.858 10.7C128.858 9.46 128.665 8.54667 128.278 7.96C127.905 7.36 127.345 7.06 126.598 7.06ZM140.038 10.22C141.851 10.42 142.758 11.2667 142.758 12.76C142.758 13.8533 142.338 14.6667 141.498 15.2C140.671 15.7333 139.551 16 138.138 16H133.958V5.54C135.385 5.26 136.671 5.12 137.818 5.12C139.191 5.12 140.271 5.36667 141.058 5.86C141.845 6.35333 142.238 7.06667 142.238 8C142.238 8.6 142.051 9.08667 141.678 9.46C141.305 9.83333 140.758 10.0867 140.038 10.22ZM137.798 6.86C137.438 6.86 137.011 6.89333 136.518 6.96V9.64H138.038C139.145 9.64 139.698 9.16667 139.698 8.22C139.698 7.31333 139.065 6.86 137.798 6.86ZM138.078 14.22C139.425 14.22 140.098 13.68 140.098 12.6C140.098 12.1067 139.945 11.7467 139.638 11.52C139.331 11.28 138.825 11.16 138.118 11.16H136.518V14.22H138.078ZM150.629 5.12C151.963 5.12 152.949 5.60667 153.589 6.58C154.229 7.55333 154.549 8.92 154.549 10.68C154.549 11.7733 154.383 12.7467 154.049 13.6C153.729 14.44 153.249 15.1 152.609 15.58C151.983 16.06 151.236 16.3 150.369 16.3C149.249 16.3 148.363 15.9133 147.709 15.14V20.08L145.149 20.36V5.42H147.389L147.529 6.72C147.943 6.18667 148.416 5.78667 148.949 5.52C149.483 5.25333 150.043 5.12 150.629 5.12ZM149.649 14.34C151.129 14.34 151.869 13.1267 151.869 10.7C151.869 9.40667 151.703 8.47333 151.369 7.9C151.036 7.32667 150.536 7.04 149.869 7.04C149.443 7.04 149.043 7.17333 148.669 7.44C148.296 7.69333 147.976 8.04 147.709 8.48V13.24C148.203 13.9733 148.849 14.34 149.649 14.34ZM165.743 10.46C165.743 10.5933 165.723 10.94 165.683 11.5H159.043C159.123 12.5267 159.39 13.26 159.843 13.7C160.297 14.14 160.897 14.36 161.643 14.36C162.11 14.36 162.55 14.2867 162.963 14.14C163.377 13.98 163.817 13.74 164.283 13.42L165.343 14.88C164.17 15.8267 162.863 16.3 161.423 16.3C159.81 16.3 158.563 15.8067 157.683 14.82C156.817 13.8333 156.383 12.4867 156.383 10.78C156.383 9.7 156.57 8.73333 156.943 7.88C157.317 7.01333 157.857 6.34 158.563 5.86C159.27 5.36667 160.11 5.12 161.083 5.12C162.563 5.12 163.71 5.59333 164.523 6.54C165.337 7.47333 165.743 8.78 165.743 10.46ZM163.203 9.72C163.203 7.86667 162.517 6.94 161.143 6.94C160.517 6.94 160.023 7.17333 159.663 7.64C159.317 8.09333 159.11 8.82667 159.043 9.84H163.203V9.72ZM179.06 16H176.62L176.28 11.66C176.227 11.02 176.2 10.3267 176.2 9.58C176.2 9.26 176.213 8.64667 176.24 7.74L174.22 14.88H172L170.06 7.74C170.1 8.47333 170.12 9.18667 170.12 9.88C170.12 10.2933 170.107 10.8867 170.08 11.66L169.8 16H167.36L168.28 5.42H171.4L173.12 12.58L174.98 5.42H178.12L179.06 16ZM190.138 10.46C190.138 10.5933 190.118 10.94 190.078 11.5H183.438C183.518 12.5267 183.785 13.26 184.238 13.7C184.691 14.14 185.291 14.36 186.038 14.36C186.505 14.36 186.945 14.2867 187.358 14.14C187.771 13.98 188.211 13.74 188.678 13.42L189.738 14.88C188.565 15.8267 187.258 16.3 185.818 16.3C184.205 16.3 182.958 15.8067 182.078 14.82C181.211 13.8333 180.778 12.4867 180.778 10.78C180.778 9.7 180.965 8.73333 181.338 7.88C181.711 7.01333 182.251 6.34 182.958 5.86C183.665 5.36667 184.505 5.12 185.478 5.12C186.958 5.12 188.105 5.59333 188.918 6.54C189.731 7.47333 190.138 8.78 190.138 10.46ZM187.598 9.72C187.598 7.86667 186.911 6.94 185.538 6.94C184.911 6.94 184.418 7.17333 184.058 7.64C183.711 8.09333 183.505 8.82667 183.438 9.84H187.598V9.72ZM198.575 16V11.58H194.995V16H192.435V5.42H194.995V9.64H198.575V5.42H201.135V16H198.575ZM210.352 16V11.58H206.772V16H204.212V5.42H206.772V9.64H210.352V5.42H212.912V16H210.352ZM219.389 8.76C221.043 8.76 222.249 9.07333 223.009 9.7C223.769 10.3133 224.149 11.2067 224.149 12.38C224.149 13.5667 223.743 14.4667 222.929 15.08C222.116 15.6933 221.076 16 219.809 16H215.989V5.42H218.549V8.76H219.389ZM225.329 5.42H227.889V16H225.329V5.42ZM219.549 14.22C220.843 14.22 221.489 13.5933 221.489 12.34C221.489 11.7133 221.329 11.2533 221.009 10.96C220.689 10.6533 220.143 10.5 219.369 10.5H218.549V14.22H219.549ZM235.95 10.34L239.49 16H236.53L234.35 11.8L232.19 16H229.37L232.89 10.42L229.73 5.42H232.65L234.45 9.02L236.23 5.42H239.01L235.95 10.34ZM252.05 10.22C253.863 10.42 254.77 11.2667 254.77 12.76C254.77 13.8533 254.35 14.6667 253.51 15.2C252.683 15.7333 251.563 16 250.15 16H245.97V5.54C247.396 5.26 248.683 5.12 249.83 5.12C251.203 5.12 252.283 5.36667 253.07 5.86C253.856 6.35333 254.25 7.06667 254.25 8C254.25 8.6 254.063 9.08667 253.69 9.46C253.316 9.83333 252.77 10.0867 252.05 10.22ZM249.81 6.86C249.45 6.86 249.023 6.89333 248.53 6.96V9.64H250.05C251.156 9.64 251.71 9.16667 251.71 8.22C251.71 7.31333 251.076 6.86 249.81 6.86ZM250.09 14.22C251.436 14.22 252.11 13.68 252.11 12.6C252.11 12.1067 251.956 11.7467 251.65 11.52C251.343 11.28 250.836 11.16 250.13 11.16H248.53V14.22H250.09ZM265.724 10.46C265.724 10.5933 265.704 10.94 265.664 11.5H259.024C259.104 12.5267 259.371 13.26 259.824 13.7C260.277 14.14 260.877 14.36 261.624 14.36C262.091 14.36 262.531 14.2867 262.944 14.14C263.357 13.98 263.797 13.74 264.264 13.42L265.324 14.88C264.151 15.8267 262.844 16.3 261.404 16.3C259.791 16.3 258.544 15.8067 257.664 14.82C256.797 13.8333 256.364 12.4867 256.364 10.78C256.364 9.7 256.551 8.73333 256.924 7.88C257.297 7.01333 257.837 6.34 258.544 5.86C259.251 5.36667 260.091 5.12 261.064 5.12C262.544 5.12 263.691 5.59333 264.504 6.54C265.317 7.47333 265.724 8.78 265.724 10.46ZM263.184 9.72C263.184 7.86667 262.497 6.94 261.124 6.94C260.497 6.94 260.004 7.17333 259.644 7.64C259.297 8.09333 259.091 8.82667 259.024 9.84H263.184V9.72ZM273.18 6.12C273.94 6.12 274.62 6.31333 275.22 6.7C275.82 7.08667 276.287 7.65333 276.62 8.4C276.967 9.13333 277.14 10.0067 277.14 11.02C277.14 12.1133 276.934 13.06 276.52 13.86C276.12 14.6467 275.554 15.2533 274.82 15.68C274.087 16.0933 273.234 16.3 272.26 16.3C270.754 16.3 269.554 15.7933 268.66 14.78C267.78 13.7533 267.34 12.2 267.34 10.12C267.34 8.58667 267.46 7.32667 267.7 6.34C267.954 5.35333 268.387 4.54667 269 3.92C269.614 3.28 270.474 2.78 271.58 2.42C272.394 2.15333 273.034 1.92 273.5 1.72C273.967 1.50667 274.474 1.23333 275.02 0.899999L276 2.62C275.534 2.92667 275.04 3.2 274.52 3.44C274 3.66667 273.374 3.9 272.64 4.14C272.027 4.34 271.534 4.57333 271.16 4.84C270.8 5.10667 270.514 5.48667 270.3 5.98C270.087 6.46 269.94 7.11333 269.86 7.94C270.647 6.72667 271.754 6.12 273.18 6.12ZM272.24 14.36C272.92 14.36 273.454 14.12 273.84 13.64C274.24 13.1467 274.44 12.3 274.44 11.1C274.44 9.99333 274.28 9.21333 273.96 8.76C273.64 8.29333 273.16 8.06 272.52 8.06C272.027 8.06 271.56 8.19333 271.12 8.46C270.694 8.72667 270.334 9.13333 270.04 9.68V11.02C270.04 12.1133 270.234 12.9467 270.62 13.52C271.007 14.08 271.547 14.36 272.24 14.36ZM279.044 10.76V8.72H285.084V10.76H279.044ZM291.909 5.12C292.603 5.12 293.223 5.22 293.769 5.42C294.329 5.62 294.856 5.93333 295.349 6.36L294.209 7.9C293.849 7.63333 293.503 7.44 293.169 7.32C292.836 7.2 292.469 7.14 292.069 7.14C290.483 7.14 289.689 8.34667 289.689 10.76C289.689 11.9867 289.896 12.8733 290.309 13.42C290.723 13.9533 291.309 14.22 292.069 14.22C292.443 14.22 292.783 14.16 293.089 14.04C293.409 13.92 293.783 13.7267 294.209 13.46L295.349 15.08C294.349 15.8933 293.209 16.3 291.929 16.3C290.916 16.3 290.036 16.08 289.289 15.64C288.543 15.1867 287.969 14.5467 287.569 13.72C287.169 12.8933 286.969 11.92 286.969 10.8C286.969 9.68 287.169 8.69333 287.569 7.84C287.969 6.97333 288.543 6.30667 289.289 5.84C290.036 5.36 290.909 5.12 291.909 5.12ZM304.825 13.2C304.825 13.6133 304.885 13.92 305.005 14.12C305.138 14.3067 305.345 14.4533 305.625 14.56L305.085 16.26C304.485 16.2067 303.992 16.06 303.605 15.82C303.232 15.58 302.945 15.2133 302.745 14.72C302.385 15.2533 301.932 15.6533 301.385 15.92C300.852 16.1733 300.252 16.3 299.585 16.3C298.532 16.3 297.698 16 297.085 15.4C296.472 14.8 296.165 14.0133 296.165 13.04C296.165 11.8933 296.578 11.02 297.405 10.42C298.245 9.80667 299.438 9.5 300.985 9.5H302.305V8.9C302.305 8.22 302.145 7.74667 301.825 7.48C301.518 7.2 301.018 7.06 300.325 7.06C299.552 7.06 298.618 7.24667 297.525 7.62L296.925 5.88C298.245 5.37333 299.525 5.12 300.765 5.12C303.472 5.12 304.825 6.33333 304.825 8.76V13.2ZM300.265 14.44C301.132 14.44 301.812 14.0067 302.305 13.14V11H301.245C299.592 11 298.765 11.6133 298.765 12.84C298.765 13.3467 298.892 13.74 299.145 14.02C299.398 14.3 299.772 14.44 300.265 14.44ZM316.743 16H314.283V11.76C314.283 10.9867 314.316 10.26 314.383 9.58C314.449 8.88667 314.523 8.36667 314.603 8.02L310.663 16H307.923V5.42H310.403V9.66C310.403 10.3933 310.363 11.12 310.283 11.84C310.216 12.56 310.143 13.0733 310.063 13.38L313.963 5.42H316.743V16ZM312.323 3.26C311.389 3.26 310.636 3.01333 310.063 2.52C309.489 2.02667 309.163 1.36 309.083 0.519999L310.583 0.219999C310.716 0.646666 310.923 0.953333 311.203 1.14C311.483 1.32667 311.856 1.42 312.323 1.42C312.789 1.42 313.169 1.32667 313.463 1.14C313.756 0.94 313.963 0.633333 314.083 0.219999L315.603 0.519999C315.523 1.36 315.189 2.02667 314.603 2.52C314.016 3.01333 313.256 3.26 312.323 3.26ZM327.597 5.42L327.277 7.38H324.177V16H321.617V7.38H318.337V5.42H327.597ZM332.887 5.12C334.447 5.12 335.661 5.62 336.527 6.62C337.407 7.60667 337.847 8.96667 337.847 10.7C337.847 11.8067 337.647 12.7867 337.247 13.64C336.847 14.48 336.274 15.1333 335.527 15.6C334.781 16.0667 333.894 16.3 332.867 16.3C331.307 16.3 330.087 15.8067 329.207 14.82C328.327 13.82 327.887 12.4467 327.887 10.7C327.887 9.59333 328.087 8.62 328.487 7.78C328.887 6.94 329.461 6.28667 330.207 5.82C330.967 5.35333 331.861 5.12 332.887 5.12ZM332.887 7.06C331.354 7.06 330.587 8.27333 330.587 10.7C330.587 11.9533 330.774 12.88 331.147 13.48C331.534 14.0667 332.107 14.36 332.867 14.36C333.627 14.36 334.194 14.06 334.567 13.46C334.954 12.86 335.147 11.94 335.147 10.7C335.147 9.46 334.954 8.54667 334.567 7.96C334.194 7.36 333.634 7.06 332.887 7.06ZM346.327 10.22C348.14 10.42 349.047 11.2667 349.047 12.76C349.047 13.8533 348.627 14.6667 347.787 15.2C346.96 15.7333 345.84 16 344.427 16H340.247V5.54C341.674 5.26 342.96 5.12 344.107 5.12C345.48 5.12 346.56 5.36667 347.347 5.86C348.134 6.35333 348.527 7.06667 348.527 8C348.527 8.6 348.34 9.08667 347.967 9.46C347.594 9.83333 347.047 10.0867 346.327 10.22ZM344.087 6.86C343.727 6.86 343.3 6.89333 342.807 6.96V9.64H344.327C345.434 9.64 345.987 9.16667 345.987 8.22C345.987 7.31333 345.354 6.86 344.087 6.86ZM344.367 14.22C345.714 14.22 346.387 13.68 346.387 12.6C346.387 12.1067 346.234 11.7467 345.927 11.52C345.62 11.28 345.114 11.16 344.407 11.16H342.807V14.22H344.367ZM352.278 13.06C352.745 13.06 353.132 13.2133 353.438 13.52C353.758 13.8267 353.918 14.2133 353.918 14.68C353.918 14.9333 353.878 15.1933 353.798 15.46C353.718 15.7267 353.585 16.0667 353.398 16.48L352.098 19.44H350.538L351.358 16C350.905 15.6933 350.678 15.2467 350.678 14.66C350.678 14.2067 350.832 13.8267 351.138 13.52C351.445 13.2133 351.825 13.06 352.278 13.06ZM372.263 16H369.823L369.483 11.66C369.43 11.02 369.403 10.3267 369.403 9.58C369.403 9.26 369.416 8.64667 369.443 7.74L367.423 14.88H365.203L363.263 7.74C363.303 8.47333 363.323 9.18667 363.323 9.88C363.323 10.2933 363.31 10.8867 363.283 11.66L363.003 16H360.563L361.483 5.42H364.603L366.323 12.58L368.183 5.42H371.323L372.263 16ZM378.981 5.12C380.541 5.12 381.754 5.62 382.621 6.62C383.501 7.60667 383.941 8.96667 383.941 10.7C383.941 11.8067 383.741 12.7867 383.341 13.64C382.941 14.48 382.368 15.1333 381.621 15.6C380.874 16.0667 379.988 16.3 378.961 16.3C377.401 16.3 376.181 15.8067 375.301 14.82C374.421 13.82 373.981 12.4467 373.981 10.7C373.981 9.59333 374.181 8.62 374.581 7.78C374.981 6.94 375.554 6.28667 376.301 5.82C377.061 5.35333 377.954 5.12 378.981 5.12ZM378.981 7.06C377.448 7.06 376.681 8.27333 376.681 10.7C376.681 11.9533 376.868 12.88 377.241 13.48C377.628 14.0667 378.201 14.36 378.961 14.36C379.721 14.36 380.288 14.06 380.661 13.46C381.048 12.86 381.241 11.94 381.241 10.7C381.241 9.46 381.048 8.54667 380.661 7.96C380.288 7.36 379.728 7.06 378.981 7.06ZM391.501 6.12C392.261 6.12 392.941 6.31333 393.541 6.7C394.141 7.08667 394.607 7.65333 394.941 8.4C395.287 9.13333 395.461 10.0067 395.461 11.02C395.461 12.1133 395.254 13.06 394.841 13.86C394.441 14.6467 393.874 15.2533 393.141 15.68C392.407 16.0933 391.554 16.3 390.581 16.3C389.074 16.3 387.874 15.7933 386.981 14.78C386.101 13.7533 385.661 12.2 385.661 10.12C385.661 8.58667 385.781 7.32667 386.021 6.34C386.274 5.35333 386.707 4.54667 387.321 3.92C387.934 3.28 388.794 2.78 389.901 2.42C390.714 2.15333 391.354 1.92 391.821 1.72C392.287 1.50667 392.794 1.23333 393.341 0.899999L394.321 2.62C393.854 2.92667 393.361 3.2 392.841 3.44C392.321 3.66667 391.694 3.9 390.961 4.14C390.347 4.34 389.854 4.57333 389.481 4.84C389.121 5.10667 388.834 5.48667 388.621 5.98C388.407 6.46 388.261 7.11333 388.181 7.94C388.967 6.72667 390.074 6.12 391.501 6.12ZM390.561 14.36C391.241 14.36 391.774 14.12 392.161 13.64C392.561 13.1467 392.761 12.3 392.761 11.1C392.761 9.99333 392.601 9.21333 392.281 8.76C391.961 8.29333 391.481 8.06 390.841 8.06C390.347 8.06 389.881 8.19333 389.441 8.46C389.014 8.72667 388.654 9.13333 388.361 9.68V11.02C388.361 12.1133 388.554 12.9467 388.941 13.52C389.327 14.08 389.867 14.36 390.561 14.36ZM406.684 16H404.224V11.76C404.224 10.9867 404.258 10.26 404.324 9.58C404.391 8.88667 404.464 8.36667 404.544 8.02L400.604 16H397.864V5.42H400.344V9.66C400.344 10.3933 400.304 11.12 400.224 11.84C400.158 12.56 400.084 13.0733 400.004 13.38L403.904 5.42H406.684V16ZM418.139 5.42V16H415.579V7.36H412.999L412.739 10.2C412.605 11.6933 412.445 12.8133 412.259 13.56C412.072 14.3067 411.759 14.8867 411.319 15.3C410.892 15.7 410.232 16.0133 409.339 16.24L408.699 14.34C409.139 14.1533 409.452 13.9467 409.639 13.72C409.839 13.48 409.979 13.1067 410.059 12.6C410.152 12.0933 410.245 11.2333 410.339 10.02L410.699 5.42H418.139ZM424.824 8.76C426.477 8.76 427.684 9.07333 428.444 9.7C429.204 10.3133 429.584 11.2067 429.584 12.38C429.584 13.5667 429.177 14.4667 428.364 15.08C427.55 15.6933 426.51 16 425.244 16H421.224V5.42H423.784V8.76H424.824ZM424.984 14.22C426.277 14.22 426.924 13.5933 426.924 12.34C426.924 11.7133 426.764 11.2533 426.444 10.96C426.124 10.6533 425.577 10.5 424.804 10.5H423.784V14.22H424.984ZM437.735 16V11.58H434.155V16H431.595V5.42H434.155V9.64H437.735V5.42H440.295V16H437.735ZM446.772 8.76C448.425 8.76 449.632 9.07333 450.392 9.7C451.152 10.3133 451.532 11.2067 451.532 12.38C451.532 13.5667 451.125 14.4667 450.312 15.08C449.499 15.6933 448.459 16 447.192 16H443.372V5.42H445.932V8.76H446.772ZM452.712 5.42H455.272V16H452.712V5.42ZM446.932 14.22C448.225 14.22 448.872 13.5933 448.872 12.34C448.872 11.7133 448.712 11.2533 448.392 10.96C448.072 10.6533 447.525 10.5 446.752 10.5H445.932V14.22H446.932ZM463.333 10.34L466.873 16H463.913L461.733 11.8L459.573 16H456.752L460.273 10.42L457.113 5.42H460.033L461.833 9.02L463.613 5.42H466.393L463.333 10.34ZM479.433 16V7.38H475.913V16H473.353V5.42H481.993V16H479.433ZM490.551 5.12C491.885 5.12 492.871 5.60667 493.511 6.58C494.151 7.55333 494.471 8.92 494.471 10.68C494.471 11.7733 494.305 12.7467 493.971 13.6C493.651 14.44 493.171 15.1 492.531 15.58C491.905 16.06 491.158 16.3 490.291 16.3C489.171 16.3 488.285 15.9133 487.631 15.14V20.08L485.071 20.36V5.42H487.311L487.451 6.72C487.865 6.18667 488.338 5.78667 488.871 5.52C489.405 5.25333 489.965 5.12 490.551 5.12ZM489.571 14.34C491.051 14.34 491.791 13.1267 491.791 10.7C491.791 9.40667 491.625 8.47333 491.291 7.9C490.958 7.32667 490.458 7.04 489.791 7.04C489.365 7.04 488.965 7.17333 488.591 7.44C488.218 7.69333 487.898 8.04 487.631 8.48V13.24C488.125 13.9733 488.771 14.34 489.571 14.34ZM505.805 16H503.345V11.76C503.345 10.9867 503.379 10.26 503.445 9.58C503.512 8.88667 503.585 8.36667 503.665 8.02L499.725 16H496.985V5.42H499.465V9.66C499.465 10.3933 499.425 11.12 499.345 11.84C499.279 12.56 499.205 13.0733 499.125 13.38L503.025 5.42H505.805V16ZM517.26 5.42V16H514.7V7.36H512.12L511.86 10.2C511.727 11.6933 511.567 12.8133 511.38 13.56C511.193 14.3067 510.88 14.8867 510.44 15.3C510.013 15.7 509.353 16.0133 508.46 16.24L507.82 14.34C508.26 14.1533 508.573 13.9467 508.76 13.72C508.96 13.48 509.1 13.1067 509.18 12.6C509.273 12.0933 509.367 11.2333 509.46 10.02L509.82 5.42H517.26ZM524.665 5.12C526.225 5.12 527.438 5.62 528.305 6.62C529.185 7.60667 529.625 8.96667 529.625 10.7C529.625 11.8067 529.425 12.7867 529.025 13.64C528.625 14.48 528.051 15.1333 527.305 15.6C526.558 16.0667 525.671 16.3 524.645 16.3C523.085 16.3 521.865 15.8067 520.985 14.82C520.105 13.82 519.665 12.4467 519.665 10.7C519.665 9.59333 519.865 8.62 520.265 7.78C520.665 6.94 521.238 6.28667 521.985 5.82C522.745 5.35333 523.638 5.12 524.665 5.12ZM524.665 7.06C523.131 7.06 522.365 8.27333 522.365 10.7C522.365 11.9533 522.551 12.88 522.925 13.48C523.311 14.0667 523.885 14.36 524.645 14.36C525.405 14.36 525.971 14.06 526.345 13.46C526.731 12.86 526.925 11.94 526.925 10.7C526.925 9.46 526.731 8.54667 526.345 7.96C525.971 7.36 525.411 7.06 524.665 7.06ZM544.53 5.42L542.01 10.36L544.85 16H542.17L539.97 11.36H538.81V16H536.51V11.36H535.37L533.15 16H530.51L533.33 10.36L530.81 5.42H533.31L535.33 9.66H536.51V5.42H538.81V9.66H540.01L542.05 5.42H544.53ZM555.079 10.46C555.079 10.5933 555.059 10.94 555.019 11.5H548.379C548.459 12.5267 548.726 13.26 549.179 13.7C549.633 14.14 550.233 14.36 550.979 14.36C551.446 14.36 551.886 14.2867 552.299 14.14C552.713 13.98 553.153 13.74 553.619 13.42L554.679 14.88C553.506 15.8267 552.199 16.3 550.759 16.3C549.146 16.3 547.899 15.8067 547.019 14.82C546.153 13.8333 545.719 12.4867 545.719 10.78C545.719 9.7 545.906 8.73333 546.279 7.88C546.653 7.01333 547.193 6.34 547.899 5.86C548.606 5.36667 549.446 5.12 550.419 5.12C551.899 5.12 553.046 5.59333 553.859 6.54C554.673 7.47333 555.079 8.78 555.079 10.46ZM552.539 9.72C552.539 7.86667 551.853 6.94 550.479 6.94C549.853 6.94 549.359 7.17333 548.999 7.64C548.653 8.09333 548.446 8.82667 548.379 9.84H552.539V9.72ZM563.516 16V11.58H559.936V16H557.376V5.42H559.936V9.64H563.516V5.42H566.076V16H563.516ZM577.973 16H575.513V11.76C575.513 10.9867 575.547 10.26 575.613 9.58C575.68 8.88667 575.753 8.36667 575.833 8.02L571.893 16H569.153V5.42H571.633V9.66C571.633 10.3933 571.593 11.12 571.513 11.84C571.447 12.56 571.373 13.0733 571.293 13.38L575.193 5.42H577.973V16ZM589.868 16H587.408V11.76C587.408 10.9867 587.441 10.26 587.508 9.58C587.574 8.88667 587.648 8.36667 587.728 8.02L583.788 16H581.048V5.42H583.528V9.66C583.528 10.3933 583.488 11.12 583.408 11.84C583.341 12.56 583.268 13.0733 583.188 13.38L587.088 5.42H589.868V16ZM585.448 3.26C584.514 3.26 583.761 3.01333 583.188 2.52C582.614 2.02667 582.288 1.36 582.208 0.519999L583.708 0.219999C583.841 0.646666 584.048 0.953333 584.328 1.14C584.608 1.32667 584.981 1.42 585.448 1.42C585.914 1.42 586.294 1.32667 586.588 1.14C586.881 0.94 587.088 0.633333 587.208 0.219999L588.728 0.519999C588.648 1.36 588.314 2.02667 587.728 2.52C587.141 3.01333 586.381 3.26 585.448 3.26ZM9.36 40H6.9V35.76C6.9 34.9867 6.93333 34.26 7 33.58C7.06667 32.8867 7.14 32.3667 7.22 32.02L3.28 40H0.54V29.42H3.02V33.66C3.02 34.3933 2.98 35.12 2.9 35.84C2.83333 36.56 2.76 37.0733 2.68 37.38L6.58 29.42H9.36V40ZM26.2545 40H23.7945V35.76C23.7945 34.9867 23.8279 34.26 23.8945 33.58C23.9612 32.8867 24.0345 32.3667 24.1145 32.02L20.1745 40H17.4345V29.42H19.9145V33.66C19.9145 34.3933 19.8745 35.12 19.7945 35.84C19.7279 36.56 19.6545 37.0733 19.5745 37.38L23.4745 29.42H26.2545V40ZM35.4691 40V35.58H31.8891V40H29.3291V29.42H31.8891V33.64H35.4691V29.42H38.0291V40H35.4691ZM48.8864 29.42L48.5664 31.38H45.4664V40H42.9064V31.38H39.6264V29.42H48.8864ZM58.5364 34.46C58.5364 34.5933 58.5164 34.94 58.4764 35.5H51.8364C51.9164 36.5267 52.1831 37.26 52.6364 37.7C53.0897 38.14 53.6897 38.36 54.4364 38.36C54.9031 38.36 55.3431 38.2867 55.7564 38.14C56.1697 37.98 56.6097 37.74 57.0764 37.42L58.1364 38.88C56.9631 39.8267 55.6564 40.3 54.2164 40.3C52.6031 40.3 51.3564 39.8067 50.4764 38.82C49.6097 37.8333 49.1764 36.4867 49.1764 34.78C49.1764 33.7 49.3631 32.7333 49.7364 31.88C50.1097 31.0133 50.6497 30.34 51.3564 29.86C52.0631 29.3667 52.9031 29.12 53.8764 29.12C55.3564 29.12 56.5031 29.5933 57.3164 30.54C58.1297 31.4733 58.5364 32.78 58.5364 34.46ZM55.9964 33.72C55.9964 31.8667 55.3097 30.94 53.9364 30.94C53.3097 30.94 52.8164 31.1733 52.4564 31.64C52.1097 32.0933 51.9031 32.8267 51.8364 33.84H55.9964V33.72ZM63.393 40H60.833V29.42H67.913L67.613 31.42H63.393V40ZM74.9263 29.12C76.2596 29.12 77.2463 29.6067 77.8863 30.58C78.5263 31.5533 78.8463 32.92 78.8463 34.68C78.8463 35.7733 78.6796 36.7467 78.3463 37.6C78.0263 38.44 77.5463 39.1 76.9063 39.58C76.2796 40.06 75.5329 40.3 74.6663 40.3C73.5463 40.3 72.6596 39.9133 72.0063 39.14V44.08L69.4463 44.36V29.42H71.6863L71.8263 30.72C72.2396 30.1867 72.7129 29.7867 73.2463 29.52C73.7796 29.2533 74.3396 29.12 74.9263 29.12ZM73.9463 38.34C75.4263 38.34 76.1663 37.1267 76.1663 34.7C76.1663 33.4067 75.9996 32.4733 75.6663 31.9C75.3329 31.3267 74.8329 31.04 74.1663 31.04C73.7396 31.04 73.3396 31.1733 72.9663 31.44C72.5929 31.6933 72.2729 32.04 72.0063 32.48V37.24C72.4996 37.9733 73.1463 38.34 73.9463 38.34ZM88.985 37.2C88.985 37.6133 89.045 37.92 89.165 38.12C89.2983 38.3067 89.505 38.4533 89.785 38.56L89.245 40.26C88.645 40.2067 88.1517 40.06 87.765 39.82C87.3917 39.58 87.105 39.2133 86.905 38.72C86.545 39.2533 86.0917 39.6533 85.545 39.92C85.0117 40.1733 84.4117 40.3 83.745 40.3C82.6917 40.3 81.8583 40 81.245 39.4C80.6317 38.8 80.325 38.0133 80.325 37.04C80.325 35.8933 80.7383 35.02 81.565 34.42C82.405 33.8067 83.5983 33.5 85.145 33.5H86.465V32.9C86.465 32.22 86.305 31.7467 85.985 31.48C85.6783 31.2 85.1783 31.06 84.485 31.06C83.7117 31.06 82.7783 31.2467 81.685 31.62L81.085 29.88C82.405 29.3733 83.685 29.12 84.925 29.12C87.6317 29.12 88.985 30.3333 88.985 32.76V37.2ZM84.425 38.44C85.2917 38.44 85.9717 38.0067 86.465 37.14V35H85.405C83.7517 35 82.925 35.6133 82.925 36.84C82.925 37.3467 83.0517 37.74 83.305 38.02C83.5583 38.3 83.9317 38.44 84.425 38.44ZM100.623 38.06H102.223V43.16H100.363L100.023 40H92.083V29.42H94.643V38.04H98.063V29.42H100.623V38.06ZM112.7 40H110.24V35.76C110.24 34.9867 110.273 34.26 110.34 33.58C110.407 32.8867 110.48 32.3667 110.56 32.02L106.62 40H103.88V29.42H106.36V33.66C106.36 34.3933 106.32 35.12 106.24 35.84C106.173 36.56 106.1 37.0733 106.02 37.38L109.92 29.42H112.7V40ZM124.594 40H122.134V35.76C122.134 34.9867 122.168 34.26 122.234 33.58C122.301 32.8867 122.374 32.3667 122.454 32.02L118.514 40H115.774V29.42H118.254V33.66C118.254 34.3933 118.214 35.12 118.134 35.84C118.068 36.56 117.994 37.0733 117.914 37.38L121.814 29.42H124.594V40ZM120.174 27.26C119.241 27.26 118.488 27.0133 117.914 26.52C117.341 26.0267 117.014 25.36 116.934 24.52L118.434 24.22C118.568 24.6467 118.774 24.9533 119.054 25.14C119.334 25.3267 119.708 25.42 120.174 25.42C120.641 25.42 121.021 25.3267 121.314 25.14C121.608 24.94 121.814 24.6333 121.934 24.22L123.454 24.52C123.374 25.36 123.041 26.0267 122.454 26.52C121.868 27.0133 121.108 27.26 120.174 27.26ZM128.509 37.06C128.962 37.06 129.349 37.22 129.669 37.54C129.989 37.8467 130.149 38.2267 130.149 38.68C130.149 39.12 129.989 39.5 129.669 39.82C129.349 40.14 128.962 40.3 128.509 40.3C128.069 40.3 127.689 40.14 127.369 39.82C127.062 39.5 126.909 39.12 126.909 38.68C126.909 38.2267 127.062 37.8467 127.369 37.54C127.676 37.22 128.056 37.06 128.509 37.06ZM147.694 26.18V40H145.054V28.28H140.194V40H137.554V26.18H147.694ZM156.333 29.12C157.666 29.12 158.653 29.6067 159.293 30.58C159.933 31.5533 160.253 32.92 160.253 34.68C160.253 35.7733 160.086 36.7467 159.753 37.6C159.433 38.44 158.953 39.1 158.313 39.58C157.686 40.06 156.939 40.3 156.073 40.3C154.953 40.3 154.066 39.9133 153.413 39.14V44.08L150.853 44.36V29.42H153.093L153.233 30.72C153.646 30.1867 154.119 29.7867 154.653 29.52C155.186 29.2533 155.746 29.12 156.333 29.12ZM155.353 38.34C156.833 38.34 157.573 37.1267 157.573 34.7C157.573 33.4067 157.406 32.4733 157.073 31.9C156.739 31.3267 156.239 31.04 155.573 31.04C155.146 31.04 154.746 31.1733 154.373 31.44C153.999 31.6933 153.679 32.04 153.413 32.48V37.24C153.906 37.9733 154.553 38.34 155.353 38.34ZM171.447 34.46C171.447 34.5933 171.427 34.94 171.387 35.5H164.747C164.827 36.5267 165.093 37.26 165.547 37.7C166 38.14 166.6 38.36 167.347 38.36C167.813 38.36 168.253 38.2867 168.667 38.14C169.08 37.98 169.52 37.74 169.987 37.42L171.047 38.88C169.873 39.8267 168.567 40.3 167.127 40.3C165.513 40.3 164.267 39.8067 163.387 38.82C162.52 37.8333 162.087 36.4867 162.087 34.78C162.087 33.7 162.273 32.7333 162.647 31.88C163.02 31.0133 163.56 30.34 164.267 29.86C164.973 29.3667 165.813 29.12 166.787 29.12C168.267 29.12 169.413 29.5933 170.227 30.54C171.04 31.4733 171.447 32.78 171.447 34.46ZM168.907 33.72C168.907 31.8667 168.22 30.94 166.847 30.94C166.22 30.94 165.727 31.1733 165.367 31.64C165.02 32.0933 164.813 32.8267 164.747 33.84H168.907V33.72ZM179.823 34.22C181.636 34.42 182.543 35.2667 182.543 36.76C182.543 37.8533 182.123 38.6667 181.283 39.2C180.456 39.7333 179.336 40 177.923 40H173.743V29.54C175.17 29.26 176.456 29.12 177.603 29.12C178.976 29.12 180.056 29.3667 180.843 29.86C181.63 30.3533 182.023 31.0667 182.023 32C182.023 32.6 181.836 33.0867 181.463 33.46C181.09 33.8333 180.543 34.0867 179.823 34.22ZM177.583 30.86C177.223 30.86 176.796 30.8933 176.303 30.96V33.64H177.823C178.93 33.64 179.483 33.1667 179.483 32.22C179.483 31.3133 178.85 30.86 177.583 30.86ZM177.863 38.22C179.21 38.22 179.883 37.68 179.883 36.6C179.883 36.1067 179.73 35.7467 179.423 35.52C179.116 35.28 178.61 35.16 177.903 35.16H176.303V38.22H177.863ZM190.415 29.12C191.748 29.12 192.735 29.6067 193.375 30.58C194.015 31.5533 194.335 32.92 194.335 34.68C194.335 35.7733 194.168 36.7467 193.835 37.6C193.515 38.44 193.035 39.1 192.395 39.58C191.768 40.06 191.021 40.3 190.155 40.3C189.035 40.3 188.148 39.9133 187.495 39.14V44.08L184.935 44.36V29.42H187.175L187.315 30.72C187.728 30.1867 188.201 29.7867 188.735 29.52C189.268 29.2533 189.828 29.12 190.415 29.12ZM189.435 38.34C190.915 38.34 191.655 37.1267 191.655 34.7C191.655 33.4067 191.488 32.4733 191.155 31.9C190.821 31.3267 190.321 31.04 189.655 31.04C189.228 31.04 188.828 31.1733 188.455 31.44C188.081 31.6933 187.761 32.04 187.495 32.48V37.24C187.988 37.9733 188.635 38.34 189.435 38.34ZM204.473 37.2C204.473 37.6133 204.533 37.92 204.653 38.12C204.787 38.3067 204.993 38.4533 205.273 38.56L204.733 40.26C204.133 40.2067 203.64 40.06 203.253 39.82C202.88 39.58 202.593 39.2133 202.393 38.72C202.033 39.2533 201.58 39.6533 201.033 39.92C200.5 40.1733 199.9 40.3 199.233 40.3C198.18 40.3 197.347 40 196.733 39.4C196.12 38.8 195.813 38.0133 195.813 37.04C195.813 35.8933 196.227 35.02 197.053 34.42C197.893 33.8067 199.087 33.5 200.633 33.5H201.953V32.9C201.953 32.22 201.793 31.7467 201.473 31.48C201.167 31.2 200.667 31.06 199.973 31.06C199.2 31.06 198.267 31.2467 197.173 31.62L196.573 29.88C197.893 29.3733 199.173 29.12 200.413 29.12C203.12 29.12 204.473 30.3333 204.473 32.76V37.2ZM199.913 38.44C200.78 38.44 201.46 38.0067 201.953 37.14V35H200.893C199.24 35 198.413 35.6133 198.413 36.84C198.413 37.3467 198.54 37.74 198.793 38.02C199.047 38.3 199.42 38.44 199.913 38.44ZM220.251 38.06H221.851V43.16H219.991L219.651 40H207.571V29.42H210.031V38.06H212.771V29.42H215.051V38.06H217.791V29.42H220.251V38.06ZM231.348 37.2C231.348 37.6133 231.408 37.92 231.528 38.12C231.662 38.3067 231.868 38.4533 232.148 38.56L231.608 40.26C231.008 40.2067 230.515 40.06 230.128 39.82C229.755 39.58 229.468 39.2133 229.268 38.72C228.908 39.2533 228.455 39.6533 227.908 39.92C227.375 40.1733 226.775 40.3 226.108 40.3C225.055 40.3 224.222 40 223.608 39.4C222.995 38.8 222.688 38.0133 222.688 37.04C222.688 35.8933 223.102 35.02 223.928 34.42C224.768 33.8067 225.962 33.5 227.508 33.5H228.828V32.9C228.828 32.22 228.668 31.7467 228.348 31.48C228.042 31.2 227.542 31.06 226.848 31.06C226.075 31.06 225.142 31.2467 224.048 31.62L223.448 29.88C224.768 29.3733 226.048 29.12 227.288 29.12C229.995 29.12 231.348 30.3333 231.348 32.76V37.2ZM226.788 38.44C227.655 38.44 228.335 38.0067 228.828 37.14V35H227.768C226.115 35 225.288 35.6133 225.288 36.84C225.288 37.3467 225.415 37.74 225.668 38.02C225.922 38.3 226.295 38.44 226.788 38.44ZM243.126 34.46C243.126 34.5933 243.106 34.94 243.066 35.5H236.426C236.506 36.5267 236.773 37.26 237.226 37.7C237.68 38.14 238.28 38.36 239.026 38.36C239.493 38.36 239.933 38.2867 240.346 38.14C240.76 37.98 241.2 37.74 241.666 37.42L242.726 38.88C241.553 39.8267 240.246 40.3 238.806 40.3C237.193 40.3 235.946 39.8067 235.066 38.82C234.2 37.8333 233.766 36.4867 233.766 34.78C233.766 33.7 233.953 32.7333 234.326 31.88C234.7 31.0133 235.24 30.34 235.946 29.86C236.653 29.3667 237.493 29.12 238.466 29.12C239.946 29.12 241.093 29.5933 241.906 30.54C242.72 31.4733 243.126 32.78 243.126 34.46ZM240.586 33.72C240.586 31.8667 239.9 30.94 238.526 30.94C237.9 30.94 237.406 31.1733 237.046 31.64C236.7 32.0933 236.493 32.8267 236.426 33.84H240.586V33.72ZM256.443 40H254.003L253.663 35.66C253.609 35.02 253.583 34.3267 253.583 33.58C253.583 33.26 253.596 32.6467 253.623 31.74L251.603 38.88H249.383L247.443 31.74C247.483 32.4733 247.503 33.1867 247.503 33.88C247.503 34.2933 247.489 34.8867 247.463 35.66L247.183 40H244.743L245.663 29.42H248.783L250.503 36.58L252.363 29.42H255.503L256.443 40ZM269.921 34.22C271.734 34.42 272.641 35.2667 272.641 36.76C272.641 37.8533 272.221 38.6667 271.381 39.2C270.554 39.7333 269.434 40 268.021 40H263.841V29.54C265.267 29.26 266.554 29.12 267.701 29.12C269.074 29.12 270.154 29.3667 270.941 29.86C271.727 30.3533 272.121 31.0667 272.121 32C272.121 32.6 271.934 33.0867 271.561 33.46C271.187 33.8333 270.641 34.0867 269.921 34.22ZM267.681 30.86C267.321 30.86 266.894 30.8933 266.401 30.96V33.64H267.921C269.027 33.64 269.581 33.1667 269.581 32.22C269.581 31.3133 268.947 30.86 267.681 30.86ZM267.961 38.22C269.307 38.22 269.981 37.68 269.981 36.6C269.981 36.1067 269.827 35.7467 269.521 35.52C269.214 35.28 268.707 35.16 268.001 35.16H266.401V38.22H267.961ZM282.657 37.2C282.657 37.6133 282.717 37.92 282.837 38.12C282.97 38.3067 283.177 38.4533 283.457 38.56L282.917 40.26C282.317 40.2067 281.824 40.06 281.437 39.82C281.064 39.58 280.777 39.2133 280.577 38.72C280.217 39.2533 279.764 39.6533 279.217 39.92C278.684 40.1733 278.084 40.3 277.417 40.3C276.364 40.3 275.53 40 274.917 39.4C274.304 38.8 273.997 38.0133 273.997 37.04C273.997 35.8933 274.41 35.02 275.237 34.42C276.077 33.8067 277.27 33.5 278.817 33.5H280.137V32.9C280.137 32.22 279.977 31.7467 279.657 31.48C279.35 31.2 278.85 31.06 278.157 31.06C277.384 31.06 276.45 31.2467 275.357 31.62L274.757 29.88C276.077 29.3733 277.357 29.12 278.597 29.12C281.304 29.12 282.657 30.3333 282.657 32.76V37.2ZM278.097 38.44C278.964 38.44 279.644 38.0067 280.137 37.14V35H279.077C277.424 35 276.597 35.6133 276.597 36.84C276.597 37.3467 276.724 37.74 276.977 38.02C277.23 38.3 277.604 38.44 278.097 38.44ZM298.435 29.42V40H285.755V29.42H288.215V38.06H290.955V29.42H293.235V38.06H295.975V29.42H298.435ZM310.337 40H307.877V35.76C307.877 34.9867 307.91 34.26 307.977 33.58C308.043 32.8867 308.117 32.3667 308.197 32.02L304.257 40H301.517V29.42H303.997V33.66C303.997 34.3933 303.957 35.12 303.877 35.84C303.81 36.56 303.737 37.0733 303.657 37.38L307.557 29.42H310.337V40ZM327.231 40H324.771V35.76C324.771 34.9867 324.804 34.26 324.871 33.58C324.938 32.8867 325.011 32.3667 325.091 32.02L321.151 40H318.411V29.42H320.891V33.66C320.891 34.3933 320.851 35.12 320.771 35.84C320.704 36.56 320.631 37.0733 320.551 37.38L324.451 29.42H327.231V40ZM339.426 38.06V43.16H337.566L337.226 40H330.966L330.626 43.16H328.766V38.06H329.466C329.746 37.8733 329.966 37.6467 330.126 37.38C330.299 37.1 330.452 36.6333 330.586 35.98C330.732 35.3267 330.852 34.3867 330.946 33.16L331.226 29.42H338.326V38.06H339.426ZM335.866 31.22H333.466L333.326 32.9C333.232 34.0467 333.119 34.9467 332.986 35.6C332.852 36.2533 332.672 36.7667 332.446 37.14C332.219 37.5 331.906 37.8067 331.506 38.06H335.866V31.22ZM350.04 34.46C350.04 34.5933 350.02 34.94 349.98 35.5H343.34C343.42 36.5267 343.687 37.26 344.14 37.7C344.594 38.14 345.194 38.36 345.94 38.36C346.407 38.36 346.847 38.2867 347.26 38.14C347.674 37.98 348.114 37.74 348.58 37.42L349.64 38.88C348.467 39.8267 347.16 40.3 345.72 40.3C344.107 40.3 342.86 39.8067 341.98 38.82C341.114 37.8333 340.68 36.4867 340.68 34.78C340.68 33.7 340.867 32.7333 341.24 31.88C341.614 31.0133 342.154 30.34 342.86 29.86C343.567 29.3667 344.407 29.12 345.38 29.12C346.86 29.12 348.007 29.5933 348.82 30.54C349.634 31.4733 350.04 32.78 350.04 34.46ZM347.5 33.72C347.5 31.8667 346.814 30.94 345.44 30.94C344.814 30.94 344.32 31.1733 343.96 31.64C343.614 32.0933 343.407 32.8267 343.34 33.84H347.5V33.72ZM361.157 40H358.697V35.76C358.697 34.9867 358.73 34.26 358.797 33.58C358.864 32.8867 358.937 32.3667 359.017 32.02L355.077 40H352.337V29.42H354.817V33.66C354.817 34.3933 354.777 35.12 354.697 35.84C354.63 36.56 354.557 37.0733 354.477 37.38L358.377 29.42H361.157V40ZM375.311 34.22C377.125 34.42 378.031 35.2667 378.031 36.76C378.031 37.8533 377.611 38.6667 376.771 39.2C375.945 39.7333 374.825 40 373.411 40H369.231V29.54C370.658 29.26 371.945 29.12 373.091 29.12C374.465 29.12 375.545 29.3667 376.331 29.86C377.118 30.3533 377.511 31.0667 377.511 32C377.511 32.6 377.325 33.0867 376.951 33.46C376.578 33.8333 376.031 34.0867 375.311 34.22ZM373.071 30.86C372.711 30.86 372.285 30.8933 371.791 30.96V33.64H373.311C374.418 33.64 374.971 33.1667 374.971 32.22C374.971 31.3133 374.338 30.86 373.071 30.86ZM373.351 38.22C374.698 38.22 375.371 37.68 375.371 36.6C375.371 36.1067 375.218 35.7467 374.911 35.52C374.605 35.28 374.098 35.16 373.391 35.16H371.791V38.22H373.351ZM393.203 29.42L392.883 31.38H389.783V40H387.223V31.38H383.943V29.42H393.203ZM402.853 34.46C402.853 34.5933 402.833 34.94 402.793 35.5H396.153C396.233 36.5267 396.499 37.26 396.953 37.7C397.406 38.14 398.006 38.36 398.753 38.36C399.219 38.36 399.659 38.2867 400.073 38.14C400.486 37.98 400.926 37.74 401.393 37.42L402.453 38.88C401.279 39.8267 399.973 40.3 398.533 40.3C396.919 40.3 395.673 39.8067 394.793 38.82C393.926 37.8333 393.493 36.4867 393.493 34.78C393.493 33.7 393.679 32.7333 394.053 31.88C394.426 31.0133 394.966 30.34 395.673 29.86C396.379 29.3667 397.219 29.12 398.193 29.12C399.673 29.12 400.819 29.5933 401.633 30.54C402.446 31.4733 402.853 32.78 402.853 34.46ZM400.313 33.72C400.313 31.8667 399.626 30.94 398.253 30.94C397.626 30.94 397.133 31.1733 396.773 31.64C396.426 32.0933 396.219 32.8267 396.153 33.84H400.313V33.72ZM409.915 34.34L413.455 40H410.495L408.315 35.8L406.155 40H403.335L406.855 34.42L403.695 29.42H406.615L408.415 33.02L410.195 29.42H412.975L409.915 34.34ZM421.075 40V35.58H417.495V40H414.935V29.42H417.495V33.64H421.075V29.42H423.635V40H421.075ZM431.032 29.12C432.592 29.12 433.805 29.62 434.672 30.62C435.552 31.6067 435.992 32.9667 435.992 34.7C435.992 35.8067 435.792 36.7867 435.392 37.64C434.992 38.48 434.419 39.1333 433.672 39.6C432.925 40.0667 432.039 40.3 431.012 40.3C429.452 40.3 428.232 39.8067 427.352 38.82C426.472 37.82 426.032 36.4467 426.032 34.7C426.032 33.5933 426.232 32.62 426.632 31.78C427.032 30.94 427.605 30.2867 428.352 29.82C429.112 29.3533 430.005 29.12 431.032 29.12ZM431.032 31.06C429.499 31.06 428.732 32.2733 428.732 34.7C428.732 35.9533 428.919 36.88 429.292 37.48C429.679 38.0667 430.252 38.36 431.012 38.36C431.772 38.36 432.339 38.06 432.712 37.46C433.099 36.86 433.292 35.94 433.292 34.7C433.292 33.46 433.099 32.5467 432.712 31.96C432.339 31.36 431.779 31.06 431.032 31.06ZM446.576 29.42V40H444.016V31.36H441.436L441.176 34.2C441.043 35.6933 440.883 36.8133 440.696 37.56C440.51 38.3067 440.196 38.8867 439.756 39.3C439.33 39.7 438.67 40.0133 437.776 40.24L437.136 38.34C437.576 38.1533 437.89 37.9467 438.076 37.72C438.276 37.48 438.416 37.1067 438.496 36.6C438.59 36.0933 438.683 35.2333 438.776 34.02L439.136 29.42H446.576ZM453.981 29.12C455.541 29.12 456.754 29.62 457.621 30.62C458.501 31.6067 458.941 32.9667 458.941 34.7C458.941 35.8067 458.741 36.7867 458.341 37.64C457.941 38.48 457.368 39.1333 456.621 39.6C455.874 40.0667 454.988 40.3 453.961 40.3C452.401 40.3 451.181 39.8067 450.301 38.82C449.421 37.82 448.981 36.4467 448.981 34.7C448.981 33.5933 449.181 32.62 449.581 31.78C449.981 30.94 450.554 30.2867 451.301 29.82C452.061 29.3533 452.954 29.12 453.981 29.12ZM453.981 31.06C452.448 31.06 451.681 32.2733 451.681 34.7C451.681 35.9533 451.868 36.88 452.241 37.48C452.628 38.0667 453.201 38.36 453.961 38.36C454.721 38.36 455.288 38.06 455.661 37.46C456.048 36.86 456.241 35.94 456.241 34.7C456.241 33.46 456.048 32.5467 455.661 31.96C455.288 31.36 454.728 31.06 453.981 31.06ZM463.901 40H461.341V29.42H468.421L468.121 31.42H463.901V40ZM478.774 40H476.314V35.76C476.314 34.9867 476.347 34.26 476.414 33.58C476.481 32.8867 476.554 32.3667 476.634 32.02L472.694 40H469.954V29.42H472.434V33.66C472.434 34.3933 472.394 35.12 472.314 35.84C472.247 36.56 472.174 37.0733 472.094 37.38L475.994 29.42H478.774V40ZM489.789 29.42V40H487.229V35.84C486.842 36.1733 486.375 36.4333 485.829 36.62C485.295 36.8067 484.742 36.9 484.169 36.9C483.155 36.9 482.395 36.62 481.889 36.06C481.382 35.5 481.129 34.7133 481.129 33.7V29.42H483.689V33.38C483.689 33.9533 483.795 34.3667 484.009 34.62C484.235 34.86 484.582 34.98 485.049 34.98C485.435 34.98 485.829 34.9 486.229 34.74C486.642 34.5667 486.975 34.3533 487.229 34.1V29.42H489.789ZM501.544 34.46C501.544 34.5933 501.524 34.94 501.484 35.5H494.844C494.924 36.5267 495.191 37.26 495.644 37.7C496.098 38.14 496.698 38.36 497.444 38.36C497.911 38.36 498.351 38.2867 498.764 38.14C499.178 37.98 499.618 37.74 500.084 37.42L501.144 38.88C499.971 39.8267 498.664 40.3 497.224 40.3C495.611 40.3 494.364 39.8067 493.484 38.82C492.618 37.8333 492.184 36.4867 492.184 34.78C492.184 33.7 492.371 32.7333 492.744 31.88C493.118 31.0133 493.658 30.34 494.364 29.86C495.071 29.3667 495.911 29.12 496.884 29.12C498.364 29.12 499.511 29.5933 500.324 30.54C501.138 31.4733 501.544 32.78 501.544 34.46ZM499.004 33.72C499.004 31.8667 498.318 30.94 496.944 30.94C496.318 30.94 495.824 31.1733 495.464 31.64C495.118 32.0933 494.911 32.8267 494.844 33.84H499.004V33.72ZM508.101 29.12C508.794 29.12 509.414 29.22 509.961 29.42C510.521 29.62 511.047 29.9333 511.541 30.36L510.401 31.9C510.041 31.6333 509.694 31.44 509.361 31.32C509.027 31.2 508.661 31.14 508.261 31.14C506.674 31.14 505.881 32.3467 505.881 34.76C505.881 35.9867 506.087 36.8733 506.501 37.42C506.914 37.9533 507.501 38.22 508.261 38.22C508.634 38.22 508.974 38.16 509.281 38.04C509.601 37.92 509.974 37.7267 510.401 37.46L511.541 39.08C510.541 39.8933 509.401 40.3 508.121 40.3C507.107 40.3 506.227 40.08 505.481 39.64C504.734 39.1867 504.161 38.5467 503.761 37.72C503.361 36.8933 503.161 35.92 503.161 34.8C503.161 33.68 503.361 32.6933 503.761 31.84C504.161 30.9733 504.734 30.3067 505.481 29.84C506.227 29.36 507.101 29.12 508.101 29.12ZM522.172 29.42L519.192 34.32L522.492 40H519.672L517.092 35.3H515.952V40H513.392V29.42H515.952V33.6H517.152L519.612 29.42H522.172ZM532.915 40H530.455V35.76C530.455 34.9867 530.488 34.26 530.555 33.58C530.621 32.8867 530.695 32.3667 530.775 32.02L526.835 40H524.095V29.42H526.575V33.66C526.575 34.3933 526.535 35.12 526.455 35.84C526.388 36.56 526.315 37.0733 526.235 37.38L530.135 29.42H532.915V40ZM544.669 34.46C544.669 34.5933 544.649 34.94 544.609 35.5H537.969C538.049 36.5267 538.316 37.26 538.769 37.7C539.223 38.14 539.823 38.36 540.569 38.36C541.036 38.36 541.476 38.2867 541.889 38.14C542.303 37.98 542.743 37.74 543.209 37.42L544.269 38.88C543.096 39.8267 541.789 40.3 540.349 40.3C538.736 40.3 537.489 39.8067 536.609 38.82C535.743 37.8333 535.309 36.4867 535.309 34.78C535.309 33.7 535.496 32.7333 535.869 31.88C536.243 31.0133 536.783 30.34 537.489 29.86C538.196 29.3667 539.036 29.12 540.009 29.12C541.489 29.12 542.636 29.5933 543.449 30.54C544.263 31.4733 544.669 32.78 544.669 34.46ZM542.129 33.72C542.129 31.8667 541.443 30.94 540.069 30.94C539.443 30.94 538.949 31.1733 538.589 31.64C538.243 32.0933 538.036 32.8267 537.969 33.84H542.129V33.72ZM557.446 29.12C558.779 29.12 559.766 29.6067 560.406 30.58C561.046 31.5533 561.366 32.92 561.366 34.68C561.366 35.7733 561.199 36.7467 560.866 37.6C560.546 38.44 560.066 39.1 559.426 39.58C558.799 40.06 558.052 40.3 557.186 40.3C556.066 40.3 555.179 39.9133 554.526 39.14V44.08L551.966 44.36V29.42H554.206L554.346 30.72C554.759 30.1867 555.232 29.7867 555.766 29.52C556.299 29.2533 556.859 29.12 557.446 29.12ZM556.466 38.34C557.946 38.34 558.686 37.1267 558.686 34.7C558.686 33.4067 558.519 32.4733 558.186 31.9C557.852 31.3267 557.352 31.04 556.686 31.04C556.259 31.04 555.859 31.1733 555.486 31.44C555.112 31.6933 554.792 32.04 554.526 32.48V37.24C555.019 37.9733 555.666 38.34 556.466 38.34ZM572.56 34.46C572.56 34.5933 572.54 34.94 572.5 35.5H565.86C565.94 36.5267 566.207 37.26 566.66 37.7C567.113 38.14 567.713 38.36 568.46 38.36C568.927 38.36 569.367 38.2867 569.78 38.14C570.193 37.98 570.633 37.74 571.1 37.42L572.16 38.88C570.987 39.8267 569.68 40.3 568.24 40.3C566.627 40.3 565.38 39.8067 564.5 38.82C563.633 37.8333 563.2 36.4867 563.2 34.78C563.2 33.7 563.387 32.7333 563.76 31.88C564.133 31.0133 564.673 30.34 565.38 29.86C566.087 29.3667 566.927 29.12 567.9 29.12C569.38 29.12 570.527 29.5933 571.34 30.54C572.153 31.4733 572.56 32.78 572.56 34.46ZM570.02 33.72C570.02 31.8667 569.333 30.94 567.96 30.94C567.333 30.94 566.84 31.1733 566.48 31.64C566.133 32.0933 565.927 32.8267 565.86 33.84H570.02V33.72ZM587.536 29.42V40H574.856V29.42H577.316V38.06H580.056V29.42H582.336V38.06H585.076V29.42H587.536ZM599.298 34.46C599.298 34.5933 599.278 34.94 599.238 35.5H592.598C592.678 36.5267 592.945 37.26 593.398 37.7C593.851 38.14 594.451 38.36 595.198 38.36C595.665 38.36 596.105 38.2867 596.518 38.14C596.931 37.98 597.371 37.74 597.838 37.42L598.898 38.88C597.725 39.8267 596.418 40.3 594.978 40.3C593.365 40.3 592.118 39.8067 591.238 38.82C590.371 37.8333 589.938 36.4867 589.938 34.78C589.938 33.7 590.125 32.7333 590.498 31.88C590.871 31.0133 591.411 30.34 592.118 29.86C592.825 29.3667 593.665 29.12 594.638 29.12C596.118 29.12 597.265 29.5933 598.078 30.54C598.891 31.4733 599.298 32.78 599.298 34.46ZM596.758 33.72C596.758 31.8667 596.071 30.94 594.698 30.94C594.071 30.94 593.578 31.1733 593.218 31.64C592.871 32.0933 592.665 32.8267 592.598 33.84H596.758V33.72ZM607.735 40V35.58H604.155V40H601.595V29.42H604.155V33.64H607.735V29.42H610.295V40H607.735ZM622.192 40H619.732V35.76C619.732 34.9867 619.765 34.26 619.832 33.58C619.899 32.8867 619.972 32.3667 620.052 32.02L616.112 40H613.372V29.42H615.852V33.66C615.852 34.3933 615.812 35.12 615.732 35.84C615.665 36.56 615.592 37.0733 615.512 37.38L619.412 29.42H622.192V40ZM633.267 29.42V40H630.707V36.14H628.927L626.867 40H624.087L626.567 35.56C626.007 35.28 625.573 34.9067 625.267 34.44C624.973 33.96 624.827 33.4 624.827 32.76C624.827 31.6667 625.227 30.84 626.027 30.28C626.827 29.7067 627.973 29.42 629.467 29.42H633.267ZM630.707 34.48V31.16H629.427C628.12 31.16 627.467 31.7 627.467 32.78C627.467 33.3533 627.62 33.78 627.927 34.06C628.233 34.34 628.72 34.48 629.387 34.48H630.707ZM637.181 37.06C637.634 37.06 638.021 37.22 638.341 37.54C638.661 37.8467 638.821 38.2267 638.821 38.68C638.821 39.12 638.661 39.5 638.341 39.82C638.021 40.14 637.634 40.3 637.181 40.3C636.741 40.3 636.361 40.14 636.041 39.82C635.734 39.5 635.581 39.12 635.581 38.68C635.581 38.2267 635.734 37.8467 636.041 37.54C636.347 37.22 636.727 37.06 637.181 37.06Z" fill="#FFFBFB"/>
</svg>
