<svg width="940" height="48" viewBox="0 0 940 48" fill="none" xmlns="http://www.w3.org/2000/svg">
<path d="M25.872 3.736L25.104 9.784H16.896V37H9.024V9.784H0.432V3.736H25.872ZM48.4969 23.752C48.4969 24.808 48.4489 25.72 48.3529 26.488H32.5609C32.8169 28.632 33.4249 30.136 34.3849 31C35.3449 31.864 36.6729 32.296 38.3689 32.296C39.3929 32.296 40.3849 32.12 41.3449 31.768C42.3049 31.384 43.3449 30.808 44.4649 30.04L47.5849 34.264C44.6089 36.632 41.2969 37.816 37.6489 37.816C33.5209 37.816 30.3529 36.6 28.1449 34.168C25.9369 31.736 24.8329 28.472 24.8329 24.376C24.8329 21.784 25.2969 19.464 26.2249 17.416C27.1529 15.336 28.5129 13.704 30.3049 12.52C32.0969 11.304 34.2409 10.696 36.7369 10.696C40.4169 10.696 43.2969 11.848 45.3769 14.152C47.4569 16.456 48.4969 19.656 48.4969 23.752ZM41.0569 21.592C40.9929 17.688 39.6169 15.736 36.9289 15.736C35.6169 15.736 34.5929 16.216 33.8569 17.176C33.1529 18.136 32.7209 19.72 32.5609 21.928H41.0569V21.592ZM66.0199 23.368L74.2279 37H65.6359L61.2199 27.448L56.8999 37H48.6439L56.8519 23.608L49.4599 11.512H57.9559L61.5079 19.672L64.9159 11.512H72.9799L66.0199 23.368ZM102.102 3.736V37H94.2304V9.688H87.3184L86.0704 20.968C85.6224 24.776 85.0464 27.784 84.3424 29.992C83.6704 32.2 82.6624 33.928 81.3184 35.176C79.9744 36.424 78.1024 37.304 75.7024 37.816L73.8304 32.296C74.9824 31.848 75.8464 31.224 76.4224 30.424C76.9984 29.624 77.4304 28.552 77.7184 27.208C78.0064 25.832 78.3264 23.624 78.6784 20.584L80.6944 3.736H102.102ZM128.42 29.608C128.42 30.568 128.548 31.272 128.804 31.72C129.092 32.168 129.54 32.504 130.148 32.728L128.564 37.672C126.996 37.544 125.716 37.208 124.724 36.664C123.732 36.088 122.964 35.192 122.42 33.976C120.756 36.536 118.196 37.816 114.74 37.816C112.212 37.816 110.196 37.08 108.692 35.608C107.188 34.136 106.436 32.216 106.436 29.848C106.436 27.064 107.46 24.936 109.508 23.464C111.556 21.992 114.516 21.256 118.388 21.256H120.98V20.152C120.98 18.648 120.66 17.624 120.02 17.08C119.38 16.504 118.26 16.216 116.66 16.216C115.828 16.216 114.82 16.344 113.636 16.6C112.452 16.824 111.236 17.144 109.988 17.56L108.26 12.568C109.86 11.96 111.492 11.496 113.156 11.176C114.852 10.856 116.42 10.696 117.859 10.696C121.508 10.696 124.18 11.448 125.876 12.952C127.572 14.456 128.42 16.712 128.42 19.72V29.608ZM116.948 32.392C118.676 32.392 120.02 31.576 120.98 29.944V25.432H119.108C117.38 25.432 116.084 25.736 115.22 26.344C114.388 26.952 113.972 27.896 113.972 29.176C113.972 30.2 114.228 31 114.74 31.576C115.284 32.12 116.02 32.392 116.948 32.392ZM147.9 13.288C149.692 13.288 151.308 13.752 152.748 14.68C154.22 15.608 155.372 16.968 156.204 18.76C157.036 20.52 157.452 22.632 157.452 25.096C157.452 27.688 156.956 29.944 155.964 31.864C154.972 33.784 153.548 35.256 151.692 36.28C149.868 37.304 147.74 37.816 145.308 37.816C141.5 37.816 138.492 36.584 136.284 34.12C134.108 31.624 133.02 27.832 133.02 22.744C133.02 19.032 133.324 15.992 133.932 13.624C134.572 11.256 135.644 9.32 137.148 7.816C138.684 6.28 140.828 5.08 143.58 4.216C145.532 3.608 147.068 3.064 148.188 2.584C149.308 2.072 150.588 1.4 152.028 0.567997L154.764 5.416C153.644 6.152 152.46 6.792 151.212 7.336C149.996 7.88 148.444 8.44 146.556 9.016C145.148 9.464 144.028 9.992 143.196 10.6C142.396 11.176 141.756 11.992 141.276 13.048C140.796 14.072 140.46 15.464 140.268 17.224C142.092 14.6 144.636 13.288 147.9 13.288ZM145.26 32.248C146.636 32.248 147.708 31.736 148.476 30.712C149.244 29.656 149.628 27.864 149.628 25.336C149.628 22.904 149.308 21.224 148.668 20.296C148.028 19.336 147.052 18.856 145.74 18.856C144.78 18.856 143.868 19.128 143.004 19.672C142.14 20.184 141.436 20.968 140.892 22.024V25.288C140.892 27.656 141.276 29.416 142.044 30.568C142.812 31.688 143.884 32.248 145.26 32.248ZM177.48 19.048L187.08 37H178.488L172.776 24.328L167.16 37H158.808L168.12 19.336L159.528 3.736H168.072L172.872 14.392L177.912 3.736H186.264L177.48 19.048ZM209.701 29.608C209.701 30.568 209.829 31.272 210.085 31.72C210.373 32.168 210.821 32.504 211.429 32.728L209.845 37.672C208.277 37.544 206.997 37.208 206.005 36.664C205.013 36.088 204.245 35.192 203.701 33.976C202.037 36.536 199.477 37.816 196.021 37.816C193.493 37.816 191.477 37.08 189.973 35.608C188.469 34.136 187.717 32.216 187.717 29.848C187.717 27.064 188.741 24.936 190.789 23.464C192.837 21.992 195.797 21.256 199.669 21.256H202.261V20.152C202.261 18.648 201.941 17.624 201.301 17.08C200.661 16.504 199.541 16.216 197.941 16.216C197.109 16.216 196.101 16.344 194.917 16.6C193.733 16.824 192.517 17.144 191.269 17.56L189.541 12.568C191.141 11.96 192.773 11.496 194.437 11.176C196.133 10.856 197.701 10.696 199.141 10.696C202.789 10.696 205.461 11.448 207.157 12.952C208.853 14.456 209.701 16.712 209.701 19.72V29.608ZM198.229 32.392C199.957 32.392 201.301 31.576 202.261 29.944V25.432H200.389C198.661 25.432 197.365 25.736 196.501 26.344C195.669 26.952 195.253 27.896 195.253 29.176C195.253 30.2 195.509 31 196.021 31.576C196.565 32.12 197.301 32.392 198.229 32.392ZM229.182 13.288C230.974 13.288 232.59 13.752 234.03 14.68C235.502 15.608 236.654 16.968 237.486 18.76C238.318 20.52 238.734 22.632 238.734 25.096C238.734 27.688 238.238 29.944 237.246 31.864C236.254 33.784 234.83 35.256 232.974 36.28C231.15 37.304 229.022 37.816 226.59 37.816C222.782 37.816 219.774 36.584 217.566 34.12C215.39 31.624 214.302 27.832 214.302 22.744C214.302 19.032 214.606 15.992 215.214 13.624C215.854 11.256 216.926 9.32 218.43 7.816C219.966 6.28 222.11 5.08 224.862 4.216C226.814 3.608 228.35 3.064 229.47 2.584C230.59 2.072 231.87 1.4 233.31 0.567997L236.046 5.416C234.926 6.152 233.742 6.792 232.494 7.336C231.278 7.88 229.726 8.44 227.838 9.016C226.43 9.464 225.31 9.992 224.478 10.6C223.678 11.176 223.038 11.992 222.558 13.048C222.078 14.072 221.742 15.464 221.55 17.224C223.374 14.6 225.918 13.288 229.182 13.288ZM226.542 32.248C227.918 32.248 228.99 31.736 229.758 30.712C230.526 29.656 230.91 27.864 230.91 25.336C230.91 22.904 230.59 21.224 229.95 20.296C229.31 19.336 228.334 18.856 227.022 18.856C226.062 18.856 225.15 19.128 224.286 19.672C223.422 20.184 222.718 20.968 222.174 22.024V25.288C222.174 27.656 222.558 29.416 223.326 30.568C224.094 31.688 225.166 32.248 226.542 32.248ZM246.041 29.128C247.225 29.128 248.233 29.56 249.065 30.424C249.929 31.256 250.361 32.264 250.361 33.448C250.361 34.664 249.929 35.704 249.065 36.568C248.233 37.4 247.225 37.816 246.041 37.816C244.825 37.816 243.785 37.4 242.921 36.568C242.089 35.704 241.673 34.664 241.673 33.448C241.673 32.264 242.089 31.256 242.921 30.424C243.785 29.56 244.825 29.128 246.041 29.128ZM246.041 12.52C247.225 12.52 248.233 12.952 249.065 13.816C249.929 14.648 250.361 15.656 250.361 16.84C250.361 18.056 249.929 19.096 249.065 19.96C248.233 20.792 247.225 21.208 246.041 21.208C244.825 21.208 243.785 20.792 242.921 19.96C242.089 19.096 241.673 18.056 241.673 16.84C241.673 15.656 242.089 14.648 242.921 13.816C243.785 12.952 244.825 12.52 246.041 12.52Z" fill="url(#paint0_linear_99_24)"/>
<path d="M273.763 37H266.179V11.512H284.227L283.315 17.272H273.763V37ZM307.786 31.432V44.968H302.506L301.642 37H287.722L286.858 44.968H281.578V31.432H283.162C283.738 31.016 284.202 30.488 284.554 29.848C284.938 29.176 285.274 28.088 285.562 26.584C285.882 25.08 286.154 22.936 286.378 20.152L287.098 11.512H305.098V31.432H307.786ZM297.994 16.504H293.578L293.338 19.48C293.114 22.04 292.826 24.104 292.474 25.672C292.154 27.208 291.706 28.424 291.13 29.32C290.554 30.184 289.786 30.888 288.826 31.432H297.994V16.504ZM333.216 23.752C333.216 24.808 333.168 25.72 333.072 26.488H317.28C317.536 28.632 318.144 30.136 319.104 31C320.064 31.864 321.392 32.296 323.088 32.296C324.112 32.296 325.104 32.12 326.064 31.768C327.024 31.384 328.064 30.808 329.184 30.04L332.304 34.264C329.328 36.632 326.016 37.816 322.368 37.816C318.24 37.816 315.072 36.6 312.864 34.168C310.656 31.736 309.552 28.472 309.552 24.376C309.552 21.784 310.016 19.464 310.944 17.416C311.872 15.336 313.232 13.704 315.024 12.52C316.816 11.304 318.96 10.696 321.456 10.696C325.136 10.696 328.016 11.848 330.096 14.152C332.176 16.456 333.216 19.656 333.216 23.752ZM325.776 21.592C325.712 17.688 324.336 15.736 321.648 15.736C320.336 15.736 319.312 16.216 318.576 17.176C317.872 18.136 317.44 19.72 317.28 21.928H325.776V21.592ZM362.307 13.288C364.099 13.288 365.715 13.752 367.155 14.68C368.627 15.608 369.779 16.968 370.611 18.76C371.443 20.52 371.859 22.632 371.859 25.096C371.859 27.688 371.363 29.944 370.371 31.864C369.379 33.784 367.955 35.256 366.099 36.28C364.275 37.304 362.147 37.816 359.715 37.816C355.907 37.816 352.899 36.584 350.691 34.12C348.515 31.624 347.427 27.832 347.427 22.744C347.427 19.032 347.731 15.992 348.339 13.624C348.979 11.256 350.051 9.32 351.555 7.816C353.091 6.28 355.235 5.08 357.987 4.216C359.939 3.608 361.475 3.064 362.595 2.584C363.715 2.072 364.995 1.4 366.435 0.567997L369.171 5.416C368.051 6.152 366.867 6.792 365.619 7.336C364.403 7.88 362.851 8.44 360.963 9.016C359.555 9.464 358.435 9.992 357.603 10.6C356.803 11.176 356.163 11.992 355.683 13.048C355.203 14.072 354.867 15.464 354.675 17.224C356.499 14.6 359.043 13.288 362.307 13.288ZM359.667 32.248C361.043 32.248 362.115 31.736 362.883 30.712C363.651 29.656 364.035 27.864 364.035 25.336C364.035 22.904 363.715 21.224 363.075 20.296C362.435 19.336 361.459 18.856 360.147 18.856C359.187 18.856 358.275 19.128 357.411 19.672C356.547 20.184 355.843 20.968 355.299 22.024V25.288C355.299 27.656 355.683 29.416 356.451 30.568C357.219 31.688 358.291 32.248 359.667 32.248ZM390.071 37.048C389.047 40.344 387.367 42.872 385.031 44.632C382.727 46.424 379.623 47.432 375.719 47.656L374.903 42.328C377.335 42.008 379.127 41.464 380.279 40.696C381.463 39.928 382.407 38.696 383.111 37H380.519L372.743 11.512H380.807L385.367 32.152L390.359 11.512H398.183L390.071 37.048ZM423.286 31.432V44.968H418.006L417.142 37H403.222L402.358 44.968H397.078V31.432H398.662C399.238 31.016 399.702 30.488 400.054 29.848C400.438 29.176 400.774 28.088 401.062 26.584C401.382 25.08 401.654 22.936 401.878 20.152L402.598 11.512H420.598V31.432H423.286ZM413.494 16.504H409.078L408.838 19.48C408.614 22.04 408.326 24.104 407.974 25.672C407.654 27.208 407.206 28.424 406.63 29.32C406.054 30.184 405.286 30.888 404.326 31.432H413.494V16.504ZM440.743 37.048C439.719 40.344 438.039 42.872 435.703 44.632C433.399 46.424 430.295 47.432 426.391 47.656L425.575 42.328C428.007 42.008 429.799 41.464 430.951 40.696C432.135 39.928 433.079 38.696 433.783 37H431.191L423.415 11.512H431.479L436.039 32.152L441.031 11.512H448.855L440.743 37.048ZM483.107 31.432H486.947V44.968H481.667L480.803 37H451.523V11.512H458.771V31.432H464.051V11.512H470.531V31.432H475.859V11.512H483.107V31.432ZM511.622 23.752C511.622 24.808 511.574 25.72 511.478 26.488H495.686C495.942 28.632 496.55 30.136 497.51 31C498.47 31.864 499.798 32.296 501.494 32.296C502.518 32.296 503.51 32.12 504.47 31.768C505.43 31.384 506.47 30.808 507.59 30.04L510.71 34.264C507.734 36.632 504.422 37.816 500.774 37.816C496.646 37.816 493.478 36.6 491.27 34.168C489.062 31.736 487.958 28.472 487.958 24.376C487.958 21.784 488.422 19.464 489.35 17.416C490.278 15.336 491.638 13.704 493.43 12.52C495.222 11.304 497.366 10.696 499.862 10.696C503.542 10.696 506.422 11.848 508.502 14.152C510.582 16.456 511.622 19.656 511.622 23.752ZM504.182 21.592C504.118 17.688 502.742 15.736 500.054 15.736C498.742 15.736 497.718 16.216 496.982 17.176C496.278 18.136 495.846 19.72 495.686 21.928H504.182V21.592ZM538.106 23.752C538.106 24.808 538.058 25.72 537.962 26.488H522.17C522.426 28.632 523.034 30.136 523.994 31C524.954 31.864 526.282 32.296 527.978 32.296C529.002 32.296 529.994 32.12 530.954 31.768C531.914 31.384 532.954 30.808 534.074 30.04L537.194 34.264C534.218 36.632 530.906 37.816 527.258 37.816C523.13 37.816 519.962 36.6 517.754 34.168C515.546 31.736 514.442 28.472 514.442 24.376C514.442 21.784 514.906 19.464 515.834 17.416C516.762 15.336 518.122 13.704 519.914 12.52C521.706 11.304 523.85 10.696 526.346 10.696C530.026 10.696 532.906 11.848 534.986 14.152C537.066 16.456 538.106 19.656 538.106 23.752ZM530.666 21.592C530.602 17.688 529.226 15.736 526.538 15.736C525.226 15.736 524.202 16.216 523.466 17.176C522.762 18.136 522.33 19.72 522.17 21.928H530.666V21.592ZM568.205 37V17.128H561.341V37H553.757V11.512H575.789V37H568.205ZM604.158 37H596.958V27.928C596.958 26.136 597.054 24.44 597.246 22.84C597.438 21.24 597.678 19.896 597.966 18.808L589.47 37H581.742V11.512H588.99V20.728C588.99 22.424 588.878 24.088 588.654 25.72C588.462 27.352 588.238 28.696 587.982 29.752L596.382 11.512H604.158V37ZM641.685 11.512V37H610.101V11.512H617.349V31.432H622.629V11.512H629.109V31.432H634.437V11.512H641.685ZM669.872 23.752C669.872 24.808 669.824 25.72 669.728 26.488H653.936C654.192 28.632 654.8 30.136 655.76 31C656.72 31.864 658.048 32.296 659.744 32.296C660.768 32.296 661.76 32.12 662.72 31.768C663.68 31.384 664.72 30.808 665.84 30.04L668.96 34.264C665.984 36.632 662.672 37.816 659.024 37.816C654.896 37.816 651.728 36.6 649.52 34.168C647.312 31.736 646.208 28.472 646.208 24.376C646.208 21.784 646.672 19.464 647.6 17.416C648.528 15.336 649.888 13.704 651.68 12.52C653.472 11.304 655.616 10.696 658.112 10.696C661.792 10.696 664.672 11.848 666.752 14.152C668.832 16.456 669.872 19.656 669.872 23.752ZM662.432 21.592C662.368 17.688 660.992 15.736 658.304 15.736C656.992 15.736 655.968 16.216 655.232 17.176C654.528 18.136 654.096 19.72 653.936 21.928H662.432V21.592ZM692.882 11.512L691.97 17.128H685.058V37H677.474V17.128H670.034V11.512H692.882ZM705.375 10.696C707.135 10.696 708.719 10.952 710.127 11.464C711.535 11.976 712.863 12.76 714.111 13.816L710.847 18.328C709.247 17.112 707.631 16.504 705.999 16.504C704.303 16.504 703.023 17.128 702.159 18.376C701.295 19.624 700.863 21.64 700.863 24.424C700.863 27.112 701.295 29.016 702.159 30.136C703.023 31.256 704.271 31.816 705.903 31.816C706.767 31.816 707.551 31.688 708.255 31.432C708.959 31.144 709.807 30.696 710.799 30.088L714.111 34.792C711.583 36.808 708.719 37.816 705.519 37.816C702.927 37.816 700.687 37.272 698.799 36.184C696.911 35.064 695.455 33.512 694.431 31.528C693.407 29.512 692.895 27.16 692.895 24.472C692.895 21.784 693.407 19.4 694.431 17.32C695.455 15.24 696.911 13.624 698.799 12.472C700.687 11.288 702.879 10.696 705.375 10.696ZM738.088 11.512V37H730.504V28.12H727.24L722.632 37H714.52L720.376 26.344C719.128 25.672 718.152 24.792 717.448 23.704C716.776 22.584 716.44 21.288 716.44 19.816C716.44 17.096 717.448 15.032 719.464 13.624C721.512 12.216 724.472 11.512 728.344 11.512H738.088ZM730.504 23.608V16.36H728.296C726.92 16.36 725.88 16.664 725.176 17.272C724.504 17.88 724.168 18.744 724.168 19.864C724.168 21.048 724.488 21.976 725.128 22.648C725.8 23.288 726.808 23.608 728.152 23.608H730.504ZM766.454 10.696C768.214 10.696 769.798 10.952 771.206 11.464C772.614 11.976 773.942 12.76 775.19 13.816L771.926 18.328C770.326 17.112 768.71 16.504 767.078 16.504C765.382 16.504 764.102 17.128 763.238 18.376C762.374 19.624 761.942 21.64 761.942 24.424C761.942 27.112 762.374 29.016 763.238 30.136C764.102 31.256 765.35 31.816 766.982 31.816C767.846 31.816 768.63 31.688 769.334 31.432C770.038 31.144 770.886 30.696 771.878 30.088L775.19 34.792C772.662 36.808 769.798 37.816 766.598 37.816C764.006 37.816 761.766 37.272 759.878 36.184C757.99 35.064 756.534 33.512 755.51 31.528C754.486 29.512 753.974 27.16 753.974 24.472C753.974 21.784 754.486 19.4 755.51 17.32C756.534 15.24 757.99 13.624 759.878 12.472C761.766 11.288 763.958 10.696 766.454 10.696ZM799.669 23.752C799.669 24.808 799.621 25.72 799.525 26.488H783.733C783.989 28.632 784.597 30.136 785.557 31C786.517 31.864 787.845 32.296 789.541 32.296C790.565 32.296 791.557 32.12 792.517 31.768C793.477 31.384 794.517 30.808 795.637 30.04L798.757 34.264C795.781 36.632 792.469 37.816 788.821 37.816C784.693 37.816 781.525 36.6 779.317 34.168C777.109 31.736 776.005 28.472 776.005 24.376C776.005 21.784 776.469 19.464 777.397 17.416C778.325 15.336 779.685 13.704 781.477 12.52C783.269 11.304 785.413 10.696 787.909 10.696C791.589 10.696 794.469 11.848 796.549 14.152C798.629 16.456 799.669 19.656 799.669 23.752ZM792.229 21.592C792.165 17.688 790.789 15.736 788.101 15.736C786.789 15.736 785.765 16.216 785.029 17.176C784.325 18.136 783.893 19.72 783.733 21.928H792.229V21.592ZM811.513 37H803.929V11.512H821.977L821.065 17.272H811.513V37ZM834.516 10.696C838.42 10.696 841.476 11.896 843.684 14.296C845.892 16.664 846.996 19.992 846.996 24.28C846.996 27 846.484 29.384 845.46 31.432C844.468 33.448 843.028 35.016 841.14 36.136C839.284 37.256 837.076 37.816 834.516 37.816C830.644 37.816 827.588 36.632 825.348 34.264C823.14 31.864 822.036 28.52 822.036 24.232C822.036 21.512 822.532 19.144 823.524 17.128C824.548 15.08 825.988 13.496 827.844 12.376C829.732 11.256 831.956 10.696 834.516 10.696ZM834.516 16.264C832.98 16.264 831.828 16.92 831.06 18.232C830.292 19.512 829.908 21.512 829.908 24.232C829.908 27.016 830.276 29.048 831.012 30.328C831.78 31.608 832.948 32.248 834.516 32.248C836.052 32.248 837.204 31.608 837.972 30.328C838.74 29.016 839.124 27 839.124 24.28C839.124 21.496 838.74 19.464 837.972 18.184C837.236 16.904 836.084 16.264 834.516 16.264ZM874.271 31.432V44.968H868.991L868.127 37H854.207L853.343 44.968H848.062V31.432H849.646C850.223 31.016 850.687 30.488 851.039 29.848C851.423 29.176 851.759 28.088 852.047 26.584C852.367 25.08 852.639 22.936 852.863 20.152L853.583 11.512H871.583V31.432H874.271ZM864.479 16.504H860.062L859.823 19.48C859.599 22.04 859.311 24.104 858.959 25.672C858.639 27.208 858.191 28.424 857.615 29.32C857.039 30.184 856.271 30.888 855.311 31.432H864.479V16.504ZM892.256 37V26.872H885.248V37H877.664V11.512H885.248V21.256H892.256V11.512H899.84V37H892.256ZM926.573 11.512V37H918.989V28.12H915.725L911.117 37H903.005L908.861 26.344C907.613 25.672 906.637 24.792 905.933 23.704C905.261 22.584 904.925 21.288 904.925 19.816C904.925 17.096 905.933 15.032 907.949 13.624C909.997 12.216 912.957 11.512 916.829 11.512H926.573ZM918.989 23.608V16.36H916.781C915.405 16.36 914.365 16.664 913.661 17.272C912.989 17.88 912.653 18.744 912.653 19.864C912.653 21.048 912.973 21.976 913.613 22.648C914.285 23.288 915.293 23.608 916.637 23.608H918.989ZM935.291 29.128C936.475 29.128 937.483 29.56 938.315 30.424C939.179 31.256 939.611 32.264 939.611 33.448C939.611 34.664 939.179 35.704 938.315 36.568C937.483 37.4 936.475 37.816 935.291 37.816C934.075 37.816 933.035 37.4 932.171 36.568C931.339 35.704 930.923 34.664 930.923 33.448C930.923 32.264 931.339 31.256 932.171 30.424C933.035 29.56 934.075 29.128 935.291 29.128Z" fill="#FFFBFB"/>
<defs>
<linearGradient id="paint0_linear_99_24" x1="0" y1="21" x2="980" y2="21" gradientUnits="userSpaceOnUse">
<stop stop-color="#52B69A"/>
<stop offset="0.108163" stop-color="#7FD671"/>
<stop offset="0.189796" stop-color="#C7E98F"/>
<stop offset="0.287755" stop-color="#D9ED92"/>
</linearGradient>
</defs>
</svg>
