<svg width="74" height="74" viewBox="0 0 74 74" fill="none" xmlns="http://www.w3.org/2000/svg">
<path d="M37 0C57.4353 0 74 16.5647 74 37C74 57.4353 57.4353 74 37 74C16.5647 74 0 57.4353 0 37C0 16.5647 16.5647 0 37 0ZM49.7634 52.0815C50.4439 49.9934 53.6323 29.1833 54.0264 25.0828C54.1455 23.8409 53.753 23.0156 52.984 22.6472C52.0542 22.2 50.6771 22.4236 49.0797 22.9995C46.8886 23.7894 18.878 35.6825 17.2597 36.371C15.725 37.0225 14.274 37.7336 14.274 38.7631C14.274 39.487 14.7035 39.894 15.8875 40.3171C17.1197 40.7563 20.2229 41.6974 22.0552 42.2025C23.82 42.69 25.8292 42.2669 26.9553 41.5671C28.149 40.8255 41.9242 31.6077 42.9136 30.8001C43.9013 29.9925 44.6896 31.0269 43.882 31.8361C43.0744 32.6437 33.6185 41.8213 32.3718 43.0921C30.858 44.6349 31.9326 46.2339 32.9477 46.8742C34.1076 47.6045 42.4487 53.1996 43.705 54.0972C44.9614 54.9949 46.2355 55.4019 47.4018 55.4019C48.5681 55.4019 49.1826 53.8656 49.7634 52.0815Z" fill="#7FD671"/>
</svg>
