<svg width="492" height="86" viewBox="0 0 492 86" fill="none" xmlns="http://www.w3.org/2000/svg">
<path d="M12.92 4.6C14.6533 4.6 16.1867 4.85333 17.52 5.36C18.88 5.86666 20.16 6.62667 21.36 7.64L18.24 11.36C17.4133 10.72 16.6 10.24 15.8 9.92C15 9.6 14.1467 9.44 13.24 9.44C11.3733 9.44 9.89333 10.2267 8.8 11.8C7.73333 13.3733 7.2 15.8 7.2 19.08C7.2 22.3067 7.73333 24.7067 8.8 26.28C9.89333 27.8267 11.4 28.6 13.32 28.6C14.3333 28.6 15.2533 28.4133 16.08 28.04C16.9067 27.64 17.8 27.08 18.76 26.36L21.68 30.12C20.64 31.16 19.3733 32.0133 17.88 32.68C16.4133 33.3467 14.7867 33.68 13 33.68C10.44 33.68 8.21333 33.12 6.32 32C4.42667 30.88 2.94667 29.2267 1.88 27.04C0.84 24.8267 0.32 22.1733 0.32 19.08C0.32 16.0667 0.853333 13.4667 1.92 11.28C3.01333 9.09333 4.50667 7.44 6.4 6.32C8.32 5.17333 10.4933 4.6 12.92 4.6ZM32.9066 11.08C36.1599 11.08 38.7066 12.08 40.5466 14.08C42.3866 16.0533 43.3066 18.8267 43.3066 22.4C43.3066 24.6667 42.8799 26.6533 42.0266 28.36C41.1999 30.04 39.9999 31.3467 38.4266 32.28C36.8799 33.2133 35.0399 33.68 32.9066 33.68C29.6799 33.68 27.1332 32.6933 25.2666 30.72C23.4266 28.72 22.5066 25.9333 22.5066 22.36C22.5066 20.0933 22.9199 18.12 23.7466 16.44C24.5999 14.7333 25.7999 13.4133 27.3466 12.48C28.9199 11.5467 30.7732 11.08 32.9066 11.08ZM32.9066 15.72C31.6266 15.72 30.6666 16.2667 30.0266 17.36C29.3866 18.4267 29.0666 20.0933 29.0666 22.36C29.0666 24.68 29.3732 26.3733 29.9866 27.44C30.6266 28.5067 31.5999 29.04 32.9066 29.04C34.1866 29.04 35.1466 28.5067 35.7866 27.44C36.4266 26.3467 36.7466 24.6667 36.7466 22.4C36.7466 20.08 36.4266 18.3867 35.7866 17.32C35.1732 16.2533 34.2132 15.72 32.9066 15.72ZM52.8103 11.08C55.1836 11.08 57.157 11.6133 58.7303 12.68C60.3303 13.72 61.1303 15.1467 61.1303 16.96C61.1303 19.3067 59.5836 20.88 56.4903 21.68C58.3836 21.9467 59.797 22.5067 60.7303 23.36C61.6903 24.1867 62.1703 25.36 62.1703 26.88C62.1703 29.0933 61.2636 30.7867 59.4503 31.96C57.6636 33.1067 55.2903 33.68 52.3303 33.68C48.8903 33.68 46.0103 32.8267 43.6903 31.12L46.6503 27.6C47.6103 28.1867 48.5036 28.6 49.3303 28.84C50.157 29.0533 51.0903 29.16 52.1303 29.16C54.477 29.16 55.6503 28.28 55.6503 26.52C55.6503 24.92 54.4236 24.12 51.9703 24.12H48.6503L49.0103 20.04H51.4903C52.5303 20.04 53.3303 19.84 53.8903 19.44C54.477 19.0133 54.7703 18.4 54.7703 17.6C54.7703 16.88 54.5036 16.3467 53.9703 16C53.4636 15.6267 52.7836 15.44 51.9303 15.44C51.0236 15.44 50.2103 15.56 49.4903 15.8C48.7703 16.04 48.0236 16.4 47.2503 16.88L44.3303 13.56C45.5303 12.7333 46.8103 12.12 48.1703 11.72C49.557 11.2933 51.1036 11.08 52.8103 11.08ZM84.9416 28.36V39.64H80.5416L79.8216 33H68.2216L67.5016 39.64H63.1016V28.36H64.4216C64.9016 28.0133 65.2882 27.5733 65.5816 27.04C65.9016 26.48 66.1816 25.5733 66.4216 24.32C66.6882 23.0667 66.9149 21.28 67.1016 18.96L67.7016 11.76H82.7016V28.36H84.9416ZM76.7816 15.92H73.1016L72.9016 18.4C72.7149 20.5333 72.4749 22.2533 72.1816 23.56C71.9149 24.84 71.5416 25.8533 71.0616 26.6C70.5816 27.32 69.9416 27.9067 69.1416 28.36H76.7816V15.92ZM104.649 26.84C104.649 27.64 104.756 28.2267 104.969 28.6C105.209 28.9733 105.582 29.2533 106.089 29.44L104.769 33.56C103.462 33.4533 102.396 33.1733 101.569 32.72C100.742 32.24 100.102 31.4933 99.6491 30.48C98.2624 32.6133 96.1291 33.68 93.2491 33.68C91.1424 33.68 89.4624 33.0667 88.2091 31.84C86.9557 30.6133 86.3291 29.0133 86.3291 27.04C86.3291 24.72 87.1824 22.9467 88.8891 21.72C90.5957 20.4933 93.0624 19.88 96.2891 19.88H98.4491V18.96C98.4491 17.7067 98.1824 16.8533 97.6491 16.4C97.1157 15.92 96.1824 15.68 94.8491 15.68C94.1557 15.68 93.3157 15.7867 92.3291 16C91.3424 16.1867 90.3291 16.4533 89.2891 16.8L87.8491 12.64C89.1824 12.1333 90.5424 11.7467 91.9291 11.48C93.3424 11.2133 94.6491 11.08 95.8491 11.08C98.8891 11.08 101.116 11.7067 102.529 12.96C103.942 14.2133 104.649 16.0933 104.649 18.6V26.84ZM95.0891 29.16C96.5291 29.16 97.6491 28.48 98.4491 27.12V23.36H96.8891C95.4491 23.36 94.3691 23.6133 93.6491 24.12C92.9557 24.6267 92.6091 25.4133 92.6091 26.48C92.6091 27.3333 92.8224 28 93.2491 28.48C93.7024 28.9333 94.3157 29.16 95.0891 29.16ZM128.203 21.96C128.203 22.84 128.163 23.6 128.083 24.24H114.923C115.136 26.0267 115.643 27.28 116.443 28C117.243 28.72 118.35 29.08 119.763 29.08C120.616 29.08 121.443 28.9333 122.243 28.64C123.043 28.32 123.91 27.84 124.843 27.2L127.443 30.72C124.963 32.6933 122.203 33.68 119.163 33.68C115.723 33.68 113.083 32.6667 111.243 30.64C109.403 28.6133 108.483 25.8933 108.483 22.48C108.483 20.32 108.87 18.3867 109.643 16.68C110.416 14.9467 111.55 13.5867 113.043 12.6C114.536 11.5867 116.323 11.08 118.403 11.08C121.47 11.08 123.87 12.04 125.603 13.96C127.336 15.88 128.203 18.5467 128.203 21.96ZM122.003 20.16C121.95 16.9067 120.803 15.28 118.563 15.28C117.47 15.28 116.616 15.68 116.003 16.48C115.416 17.28 115.056 18.6 114.923 20.44H122.003V20.16ZM113.883 1.04C114.79 1.04 115.55 1.34667 116.163 1.96C116.803 2.57333 117.123 3.32 117.123 4.2C117.123 5.08 116.803 5.82667 116.163 6.44C115.55 7.05333 114.79 7.36 113.883 7.36C112.976 7.36 112.203 7.05333 111.563 6.44C110.95 5.82667 110.643 5.08 110.643 4.2C110.643 3.32 110.95 2.57333 111.563 1.96C112.203 1.34667 112.976 1.04 113.883 1.04ZM123.123 1.04C124.056 1.04 124.83 1.34667 125.443 1.96C126.056 2.57333 126.363 3.32 126.363 4.2C126.363 5.08 126.056 5.82667 125.443 6.44C124.83 7.05333 124.056 7.36 123.123 7.36C122.243 7.36 121.483 7.05333 120.843 6.44C120.23 5.82667 119.923 5.08 119.923 4.2C119.923 3.32 120.23 2.57333 120.843 1.96C121.483 1.34667 122.243 1.04 123.123 1.04ZM154.993 33H148.993L148.513 25.4C148.46 24.0667 148.433 23.1067 148.433 22.52C148.433 21.2133 148.5 19.4667 148.633 17.28L145.193 30.84H139.953L136.633 17.32C136.767 18.7067 136.833 20.2933 136.833 22.08C136.833 22.8 136.807 23.9067 136.753 25.4L136.393 33H130.433L132.233 11.76H139.673L142.593 25.44L145.593 11.76H153.153L154.993 33ZM187.161 3.32V33H181.561L181.241 30.52C179.747 32.6267 177.734 33.68 175.201 33.68C172.561 33.68 170.547 32.6667 169.161 30.64C167.801 28.6133 167.121 25.84 167.121 22.32C167.121 20.16 167.481 18.2267 168.201 16.52C168.921 14.8133 169.934 13.48 171.241 12.52C172.574 11.56 174.094 11.08 175.801 11.08C177.827 11.08 179.507 11.7467 180.841 13.08V2.64L187.161 3.32ZM177.161 29.04C178.627 29.04 179.854 28.24 180.841 26.64V17.48C180.334 16.8667 179.814 16.4133 179.281 16.12C178.774 15.8267 178.187 15.68 177.521 15.68C176.347 15.68 175.414 16.2267 174.721 17.32C174.027 18.4133 173.681 20.0933 173.681 22.36C173.681 24.84 173.974 26.5733 174.561 27.56C175.174 28.5467 176.041 29.04 177.161 29.04ZM198.425 11.76V33H192.105V11.76H198.425ZM195.225 0.559998C196.318 0.559998 197.212 0.906665 197.905 1.6C198.625 2.26666 198.985 3.12 198.985 4.16C198.985 5.2 198.625 6.06667 197.905 6.76C197.212 7.42667 196.318 7.76 195.225 7.76C194.132 7.76 193.238 7.42667 192.545 6.76C191.852 6.06667 191.505 5.2 191.505 4.16C191.505 3.12 191.852 2.26666 192.545 1.6C193.238 0.906665 194.132 0.559998 195.225 0.559998ZM222.954 13C221.567 13.56 219.527 13.84 216.834 13.84C218.221 14.4267 219.234 15.1467 219.874 16C220.514 16.8533 220.834 17.96 220.834 19.32C220.834 20.68 220.474 21.9067 219.754 23C219.034 24.0667 217.994 24.9067 216.634 25.52C215.301 26.1333 213.727 26.44 211.914 26.44C211.061 26.44 210.247 26.36 209.474 26.2C209.261 26.3067 209.087 26.48 208.954 26.72C208.847 26.9333 208.794 27.16 208.794 27.4C208.794 27.8 208.941 28.12 209.234 28.36C209.554 28.5733 210.181 28.68 211.114 28.68H214.314C215.941 28.68 217.367 28.9467 218.594 29.48C219.821 30.0133 220.767 30.7467 221.434 31.68C222.101 32.6133 222.434 33.6667 222.434 34.84C222.434 37.0533 221.474 38.7733 219.554 40C217.661 41.2533 214.914 41.88 211.314 41.88C208.727 41.88 206.687 41.6 205.194 41.04C203.701 40.5067 202.647 39.7467 202.034 38.76C201.447 37.7733 201.154 36.5333 201.154 35.04H206.834C206.834 35.68 206.954 36.1867 207.194 36.56C207.461 36.9333 207.927 37.2133 208.594 37.4C209.261 37.5867 210.221 37.68 211.474 37.68C213.207 37.68 214.407 37.4667 215.074 37.04C215.741 36.64 216.074 36.0533 216.074 35.28C216.074 34.64 215.821 34.1333 215.314 33.76C214.807 33.3867 214.047 33.2 213.034 33.2H209.954C207.767 33.2 206.127 32.8133 205.034 32.04C203.967 31.24 203.434 30.2267 203.434 29C203.434 28.2267 203.661 27.48 204.114 26.76C204.567 26.0133 205.181 25.4 205.954 24.92C204.621 24.2 203.647 23.36 203.034 22.4C202.447 21.4133 202.154 20.2267 202.154 18.84C202.154 16.4667 203.007 14.5867 204.714 13.2C206.421 11.7867 208.674 11.08 211.474 11.08C213.607 11.1333 215.407 10.92 216.874 10.44C218.367 9.96 219.901 9.25333 221.474 8.32L222.954 13ZM211.634 15.24C210.647 15.24 209.861 15.56 209.274 16.2C208.714 16.8133 208.434 17.6667 208.434 18.76C208.434 19.9067 208.714 20.8 209.274 21.44C209.861 22.0533 210.647 22.36 211.634 22.36C212.674 22.36 213.461 22.0533 213.994 21.44C214.554 20.8267 214.834 19.9067 214.834 18.68C214.834 16.3867 213.767 15.24 211.634 15.24ZM231.745 11.76V33H225.425V11.76H231.745ZM228.545 0.559998C229.639 0.559998 230.532 0.906665 231.225 1.6C231.945 2.26666 232.305 3.12 232.305 4.16C232.305 5.2 231.945 6.06667 231.225 6.76C230.532 7.42667 229.639 7.76 228.545 7.76C227.452 7.76 226.559 7.42667 225.865 6.76C225.172 6.06667 224.825 5.2 224.825 4.16C224.825 3.12 225.172 2.26666 225.865 1.6C226.559 0.906665 227.452 0.559998 228.545 0.559998ZM250.034 32C249.261 32.5333 248.354 32.9467 247.314 33.24C246.301 33.5333 245.288 33.68 244.274 33.68C239.634 33.6533 237.314 31.0933 237.314 26V16.16H234.314V11.76H237.314V7.16L243.634 6.44V11.76H248.514L247.834 16.16H243.634V25.92C243.634 26.9067 243.794 27.6133 244.114 28.04C244.434 28.4667 244.941 28.68 245.634 28.68C246.354 28.68 247.114 28.4533 247.914 28L250.034 32ZM268.555 26.84C268.555 27.64 268.662 28.2267 268.875 28.6C269.115 28.9733 269.489 29.2533 269.995 29.44L268.675 33.56C267.369 33.4533 266.302 33.1733 265.475 32.72C264.649 32.24 264.009 31.4933 263.555 30.48C262.169 32.6133 260.035 33.68 257.155 33.68C255.049 33.68 253.369 33.0667 252.115 31.84C250.862 30.6133 250.235 29.0133 250.235 27.04C250.235 24.72 251.089 22.9467 252.795 21.72C254.502 20.4933 256.969 19.88 260.195 19.88H262.355V18.96C262.355 17.7067 262.089 16.8533 261.555 16.4C261.022 15.92 260.089 15.68 258.755 15.68C258.062 15.68 257.222 15.7867 256.235 16C255.249 16.1867 254.235 16.4533 253.195 16.8L251.755 12.64C253.089 12.1333 254.449 11.7467 255.835 11.48C257.249 11.2133 258.555 11.08 259.755 11.08C262.795 11.08 265.022 11.7067 266.435 12.96C267.849 14.2133 268.555 16.0933 268.555 18.6V26.84ZM258.995 29.16C260.435 29.16 261.555 28.48 262.355 27.12V23.36H260.795C259.355 23.36 258.275 23.6133 257.555 24.12C256.862 24.6267 256.515 25.4133 256.515 26.48C256.515 27.3333 256.729 28 257.155 28.48C257.609 28.9333 258.222 29.16 258.995 29.16ZM278.839 33.68C276.999 33.68 275.559 33.16 274.519 32.12C273.505 31.0533 272.999 29.5467 272.999 27.6V3.32L279.319 2.64V27.36C279.319 28.24 279.679 28.68 280.399 28.68C280.772 28.68 281.119 28.6133 281.439 28.48L282.679 32.96C281.532 33.44 280.252 33.68 278.839 33.68ZM283.963 22.92V18.04H296.723V22.92H283.963ZM313.012 33V16.44H307.292V33H300.972V11.76H319.332V33H313.012ZM336.293 11.08C338.959 11.08 340.946 12.0667 342.253 14.04C343.559 16.0133 344.213 18.7733 344.213 22.32C344.213 24.5067 343.866 26.4667 343.173 28.2C342.506 29.9067 341.533 31.2533 340.253 32.24C338.973 33.2 337.479 33.68 335.773 33.68C333.639 33.68 331.919 32.9467 330.613 31.48V41.2L324.293 41.88V11.76H329.853L330.173 14.12C330.999 13.08 331.946 12.32 333.013 11.84C334.079 11.3333 335.173 11.08 336.293 11.08ZM333.853 29.04C336.386 29.04 337.653 26.8267 337.653 22.4C337.653 19.8933 337.373 18.16 336.813 17.2C336.253 16.2133 335.413 15.72 334.293 15.72C333.573 15.72 332.893 15.9333 332.253 16.36C331.639 16.7867 331.093 17.4 330.613 18.2V27.16C331.466 28.4133 332.546 29.04 333.853 29.04ZM357.36 11.08C360.613 11.08 363.16 12.08 365 14.08C366.84 16.0533 367.76 18.8267 367.76 22.4C367.76 24.6667 367.333 26.6533 366.48 28.36C365.653 30.04 364.453 31.3467 362.88 32.28C361.333 33.2133 359.493 33.68 357.36 33.68C354.133 33.68 351.586 32.6933 349.72 30.72C347.88 28.72 346.96 25.9333 346.96 22.36C346.96 20.0933 347.373 18.12 348.2 16.44C349.053 14.7333 350.253 13.4133 351.8 12.48C353.373 11.5467 355.226 11.08 357.36 11.08ZM357.36 15.72C356.08 15.72 355.12 16.2667 354.48 17.36C353.84 18.4267 353.52 20.0933 353.52 22.36C353.52 24.68 353.826 26.3733 354.44 27.44C355.08 28.5067 356.053 29.04 357.36 29.04C358.64 29.04 359.6 28.5067 360.24 27.44C360.88 26.3467 361.2 24.6667 361.2 22.4C361.2 20.08 360.88 18.3867 360.24 17.32C359.626 16.2533 358.666 15.72 357.36 15.72ZM390.488 28.36V39.64H386.088L385.368 33H373.768L373.048 39.64H368.648V28.36H369.968C370.448 28.0133 370.835 27.5733 371.128 27.04C371.448 26.48 371.728 25.5733 371.968 24.32C372.235 23.0667 372.462 21.28 372.648 18.96L373.248 11.76H388.248V28.36H390.488ZM382.328 15.92H378.648L378.448 18.4C378.262 20.5333 378.022 22.2533 377.728 23.56C377.462 24.84 377.088 25.8533 376.608 26.6C376.128 27.32 375.488 27.9067 374.688 28.36H382.328V15.92ZM405.036 33.04C404.183 35.7867 402.783 37.8933 400.836 39.36C398.916 40.8533 396.329 41.6933 393.076 41.88L392.396 37.44C394.423 37.1733 395.916 36.72 396.876 36.08C397.863 35.44 398.649 34.4133 399.236 33H397.076L390.596 11.76H397.316L401.116 28.96L405.276 11.76H411.796L405.036 33.04ZM433.099 11.76L427.459 21.6L433.579 33H426.899L422.259 23.88H420.339V33H414.019V11.76H420.339V20.04H422.419L427.019 11.76H433.099ZM452.573 11.76L451.813 16.44H446.053V33H439.733V16.44H433.533V11.76H452.573ZM462.24 18.36C465.68 18.36 468.187 18.9867 469.76 20.24C471.36 21.4667 472.16 23.2933 472.16 25.72C472.16 28.0667 471.334 29.8667 469.68 31.12C468.027 32.3733 465.854 33 463.16 33H454.8V11.76H461.12V18.36H462.24ZM473.96 11.76H480.28V33H473.96V11.76ZM462.48 28.84C464.64 28.84 465.72 27.76 465.72 25.6C465.72 24.5067 465.44 23.7067 464.88 23.2C464.347 22.6667 463.427 22.4 462.12 22.4H461.12V28.84H462.48ZM487.55 26.44C488.563 26.44 489.417 26.7867 490.11 27.48C490.803 28.1733 491.15 29.0267 491.15 30.04C491.15 30.6267 491.057 31.2133 490.87 31.8C490.683 32.3867 490.35 33.2133 489.87 34.28L487.35 40.08H483.79L485.51 33.04C485.003 32.6933 484.603 32.2667 484.31 31.76C484.043 31.2267 483.91 30.6533 483.91 30.04C483.91 29.0267 484.257 28.1733 484.95 27.48C485.643 26.7867 486.51 26.44 487.55 26.44Z" fill="#FFFBFB"/>
<path d="M20.56 55.76L14.92 65.6L21.04 77H14.36L9.72 67.88H7.8V77H1.48V55.76H7.8V64.04H9.88L14.48 55.76H20.56ZM32.0863 55.08C35.3396 55.08 37.8863 56.08 39.7263 58.08C41.5663 60.0533 42.4863 62.8267 42.4863 66.4C42.4863 68.6667 42.0596 70.6533 41.2063 72.36C40.3796 74.04 39.1796 75.3467 37.6063 76.28C36.0596 77.2133 34.2196 77.68 32.0863 77.68C28.8596 77.68 26.3129 76.6933 24.4463 74.72C22.6063 72.72 21.6863 69.9333 21.6863 66.36C21.6863 64.0933 22.0996 62.12 22.9263 60.44C23.7796 58.7333 24.9796 57.4133 26.5263 56.48C28.0996 55.5467 29.9529 55.08 32.0863 55.08ZM32.0863 59.72C30.8063 59.72 29.8463 60.2667 29.2063 61.36C28.5663 62.4267 28.2463 64.0933 28.2463 66.36C28.2463 68.68 28.5529 70.3733 29.1663 71.44C29.8063 72.5067 30.7796 73.04 32.0863 73.04C33.3663 73.04 34.3263 72.5067 34.9663 71.44C35.6063 70.3467 35.9263 68.6667 35.9263 66.4C35.9263 64.08 35.6063 62.3867 34.9663 61.32C34.3529 60.2533 33.3929 59.72 32.0863 59.72ZM61.87 55.76L61.11 60.44H55.35V77H49.03V60.44H42.83V55.76H61.87ZM72.2816 55.08C75.5349 55.08 78.0816 56.08 79.9216 58.08C81.7616 60.0533 82.6816 62.8267 82.6816 66.4C82.6816 68.6667 82.2549 70.6533 81.4016 72.36C80.5749 74.04 79.3749 75.3467 77.8016 76.28C76.2549 77.2133 74.4149 77.68 72.2816 77.68C69.0549 77.68 66.5082 76.6933 64.6416 74.72C62.8016 72.72 61.8816 69.9333 61.8816 66.36C61.8816 64.0933 62.2949 62.12 63.1216 60.44C63.9749 58.7333 65.1749 57.4133 66.7216 56.48C68.2949 55.5467 70.1482 55.08 72.2816 55.08ZM72.2816 59.72C71.0016 59.72 70.0416 60.2667 69.4016 61.36C68.7616 62.4267 68.4416 64.0933 68.4416 66.36C68.4416 68.68 68.7482 70.3733 69.3616 71.44C70.0016 72.5067 70.9749 73.04 72.2816 73.04C73.5616 73.04 74.5216 72.5067 75.1616 71.44C75.8016 70.3467 76.1216 68.6667 76.1216 66.4C76.1216 64.08 75.8016 62.3867 75.1616 61.32C74.5482 60.2533 73.5882 59.72 72.2816 59.72ZM98.4409 55.08C101.108 55.08 103.094 56.0667 104.401 58.04C105.708 60.0133 106.361 62.7733 106.361 66.32C106.361 68.5067 106.014 70.4667 105.321 72.2C104.654 73.9067 103.681 75.2533 102.401 76.24C101.121 77.2 99.6276 77.68 97.9209 77.68C95.7876 77.68 94.0676 76.9467 92.7609 75.48V85.2L86.4409 85.88V55.76H92.0009L92.3209 58.12C93.1476 57.08 94.0943 56.32 95.1609 55.84C96.2276 55.3333 97.3209 55.08 98.4409 55.08ZM96.0009 73.04C98.5343 73.04 99.8009 70.8267 99.8009 66.4C99.8009 63.8933 99.5209 62.16 98.9609 61.2C98.4009 60.2133 97.5609 59.72 96.4409 59.72C95.7209 59.72 95.0409 59.9333 94.4009 60.36C93.7876 60.7867 93.2409 61.4 92.7609 62.2V71.16C93.6143 72.4133 94.6943 73.04 96.0009 73.04ZM117.748 62.36C121.188 62.36 123.695 62.9867 125.268 64.24C126.868 65.4667 127.668 67.2933 127.668 69.72C127.668 72.0667 126.841 73.8667 125.188 75.12C123.535 76.3733 121.361 77 118.668 77H110.308V55.76H116.628V62.36H117.748ZM129.468 55.76H135.788V77H129.468V55.76ZM117.988 72.84C120.148 72.84 121.228 71.76 121.228 69.6C121.228 68.5067 120.948 67.7067 120.388 67.2C119.855 66.6667 118.935 66.4 117.628 66.4H116.628V72.84H117.988ZM159.258 65.96C159.258 66.84 159.218 67.6 159.138 68.24H145.978C146.191 70.0267 146.698 71.28 147.498 72C148.298 72.72 149.404 73.08 150.818 73.08C151.671 73.08 152.498 72.9333 153.298 72.64C154.098 72.32 154.964 71.84 155.898 71.2L158.498 74.72C156.018 76.6933 153.258 77.68 150.218 77.68C146.778 77.68 144.138 76.6667 142.298 74.64C140.458 72.6133 139.538 69.8933 139.538 66.48C139.538 64.32 139.924 62.3867 140.698 60.68C141.471 58.9467 142.604 57.5867 144.098 56.6C145.591 55.5867 147.378 55.08 149.458 55.08C152.524 55.08 154.924 56.04 156.658 57.96C158.391 59.88 159.258 62.5467 159.258 65.96ZM153.058 64.16C153.004 60.9067 151.858 59.28 149.618 59.28C148.524 59.28 147.671 59.68 147.058 60.48C146.471 61.28 146.111 62.6 145.978 64.44H153.058V64.16ZM184.3 55.08C186.967 55.08 188.954 56.0667 190.26 58.04C191.567 60.0133 192.22 62.7733 192.22 66.32C192.22 68.5067 191.874 70.4667 191.18 72.2C190.514 73.9067 189.54 75.2533 188.26 76.24C186.98 77.2 185.487 77.68 183.78 77.68C181.647 77.68 179.927 76.9467 178.62 75.48V85.2L172.3 85.88V55.76H177.86L178.18 58.12C179.007 57.08 179.954 56.32 181.02 55.84C182.087 55.3333 183.18 55.08 184.3 55.08ZM181.86 73.04C184.394 73.04 185.66 70.8267 185.66 66.4C185.66 63.8933 185.38 62.16 184.82 61.2C184.26 60.2133 183.42 59.72 182.3 59.72C181.58 59.72 180.9 59.9333 180.26 60.36C179.647 60.7867 179.1 61.4 178.62 62.2V71.16C179.474 72.4133 180.554 73.04 181.86 73.04ZM212.657 70.84C212.657 71.64 212.764 72.2267 212.977 72.6C213.217 72.9733 213.59 73.2533 214.097 73.44L212.777 77.56C211.47 77.4533 210.404 77.1733 209.577 76.72C208.75 76.24 208.11 75.4933 207.657 74.48C206.27 76.6133 204.137 77.68 201.257 77.68C199.15 77.68 197.47 77.0667 196.217 75.84C194.964 74.6133 194.337 73.0133 194.337 71.04C194.337 68.72 195.19 66.9467 196.897 65.72C198.604 64.4933 201.07 63.88 204.297 63.88H206.457V62.96C206.457 61.7067 206.19 60.8533 205.657 60.4C205.124 59.92 204.19 59.68 202.857 59.68C202.164 59.68 201.324 59.7867 200.337 60C199.35 60.1867 198.337 60.4533 197.297 60.8L195.857 56.64C197.19 56.1333 198.55 55.7467 199.937 55.48C201.35 55.2133 202.657 55.08 203.857 55.08C206.897 55.08 209.124 55.7067 210.537 56.96C211.95 58.2133 212.657 60.0933 212.657 62.6V70.84ZM203.097 73.16C204.537 73.16 205.657 72.48 206.457 71.12V67.36H204.897C203.457 67.36 202.377 67.6133 201.657 68.12C200.964 68.6267 200.617 69.4133 200.617 70.48C200.617 71.3333 200.83 72 201.257 72.48C201.71 72.9333 202.324 73.16 203.097 73.16ZM228.891 57.24C230.384 57.24 231.731 57.6267 232.931 58.4C234.158 59.1733 235.118 60.3067 235.811 61.8C236.504 63.2667 236.851 65.0267 236.851 67.08C236.851 69.24 236.438 71.12 235.611 72.72C234.784 74.32 233.598 75.5467 232.051 76.4C230.531 77.2533 228.758 77.68 226.731 77.68C223.558 77.68 221.051 76.6533 219.211 74.6C217.398 72.52 216.491 69.36 216.491 65.12C216.491 62.0267 216.744 59.4933 217.251 57.52C217.784 55.5467 218.678 53.9333 219.931 52.68C221.211 51.4 222.998 50.4 225.291 49.68C226.918 49.1733 228.198 48.72 229.131 48.32C230.064 47.8933 231.131 47.3333 232.331 46.64L234.611 50.68C233.678 51.2933 232.691 51.8267 231.651 52.28C230.638 52.7333 229.344 53.2 227.771 53.68C226.598 54.0533 225.664 54.4933 224.971 55C224.304 55.48 223.771 56.16 223.371 57.04C222.971 57.8933 222.691 59.0533 222.531 60.52C224.051 58.3333 226.171 57.24 228.891 57.24ZM226.691 73.04C227.838 73.04 228.731 72.6133 229.371 71.76C230.011 70.88 230.331 69.3867 230.331 67.28C230.331 65.2533 230.064 63.8533 229.531 63.08C228.998 62.28 228.184 61.88 227.091 61.88C226.291 61.88 225.531 62.1067 224.811 62.56C224.091 62.9867 223.504 63.64 223.051 64.52V67.24C223.051 69.2133 223.371 70.68 224.011 71.64C224.651 72.5733 225.544 73.04 226.691 73.04ZM249.821 55.08C253.074 55.08 255.621 56.08 257.461 58.08C259.301 60.0533 260.221 62.8267 260.221 66.4C260.221 68.6667 259.794 70.6533 258.941 72.36C258.114 74.04 256.914 75.3467 255.341 76.28C253.794 77.2133 251.954 77.68 249.821 77.68C246.594 77.68 244.047 76.6933 242.181 74.72C240.341 72.72 239.421 69.9333 239.421 66.36C239.421 64.0933 239.834 62.12 240.661 60.44C241.514 58.7333 242.714 57.4133 244.261 56.48C245.834 55.5467 247.687 55.08 249.821 55.08ZM249.821 59.72C248.541 59.72 247.581 60.2667 246.941 61.36C246.301 62.4267 245.981 64.0933 245.981 66.36C245.981 68.68 246.287 70.3733 246.901 71.44C247.541 72.5067 248.514 73.04 249.821 73.04C251.101 73.04 252.061 72.5067 252.701 71.44C253.341 70.3467 253.661 68.6667 253.661 66.4C253.661 64.08 253.341 62.3867 252.701 61.32C252.087 60.2533 251.127 59.72 249.821 59.72ZM279.604 55.76L278.844 60.44H273.084V77H266.764V60.44H260.564V55.76H279.604ZM297.11 70.84C297.11 71.64 297.217 72.2267 297.43 72.6C297.67 72.9733 298.043 73.2533 298.55 73.44L297.23 77.56C295.923 77.4533 294.857 77.1733 294.03 76.72C293.203 76.24 292.563 75.4933 292.11 74.48C290.723 76.6133 288.59 77.68 285.71 77.68C283.603 77.68 281.923 77.0667 280.67 75.84C279.417 74.6133 278.79 73.0133 278.79 71.04C278.79 68.72 279.643 66.9467 281.35 65.72C283.057 64.4933 285.523 63.88 288.75 63.88H290.91V62.96C290.91 61.7067 290.643 60.8533 290.11 60.4C289.577 59.92 288.643 59.68 287.31 59.68C286.617 59.68 285.777 59.7867 284.79 60C283.803 60.1867 282.79 60.4533 281.75 60.8L280.31 56.64C281.643 56.1333 283.003 55.7467 284.39 55.48C285.803 55.2133 287.11 55.08 288.31 55.08C291.35 55.08 293.577 55.7067 294.99 56.96C296.403 58.2133 297.11 60.0933 297.11 62.6V70.84ZM287.55 73.16C288.99 73.16 290.11 72.48 290.91 71.12V67.36H289.35C287.91 67.36 286.83 67.6133 286.11 68.12C285.417 68.6267 285.07 69.4133 285.07 70.48C285.07 71.3333 285.283 72 285.71 72.48C286.163 72.9333 286.777 73.16 287.55 73.16ZM320.824 55.08C322.797 55.08 324.517 55.5333 325.984 56.44C327.477 57.32 328.624 58.6133 329.424 60.32C330.251 62 330.664 64.0267 330.664 66.4C330.664 68.6133 330.251 70.5733 329.424 72.28C328.624 73.9867 327.477 75.32 325.984 76.28C324.517 77.2133 322.797 77.68 320.824 77.68C318.131 77.68 315.957 76.8667 314.304 75.24C312.651 73.6133 311.624 71.3333 311.224 68.4H308.464V77H302.144V55.76H308.464V64.04H311.304C311.731 61.2667 312.757 59.08 314.384 57.48C316.037 55.88 318.184 55.08 320.824 55.08ZM320.824 73.04C322.051 73.04 322.917 72.5067 323.424 71.44C323.957 70.3467 324.224 68.6667 324.224 66.4C324.224 64.1333 323.944 62.4533 323.384 61.36C322.851 60.2667 321.997 59.72 320.824 59.72C319.651 59.72 318.797 60.2533 318.264 61.32C317.731 62.3867 317.464 64.0667 317.464 66.36C317.464 68.6533 317.731 70.3467 318.264 71.44C318.824 72.5067 319.677 73.04 320.824 73.04ZM350.034 55.76L349.274 60.44H343.514V77H337.194V60.44H330.994V55.76H350.034Z" fill="url(#paint0_linear_99_26)"/>
<defs>
<linearGradient id="paint0_linear_99_26" x1="-1" y1="42" x2="649" y2="42" gradientUnits="userSpaceOnUse">
<stop stop-color="#52B69A"/>
<stop offset="0.211538" stop-color="#7FD671"/>
<stop offset="0.379808" stop-color="#C7E98F"/>
<stop offset="0.461538" stop-color="#D9ED92"/>
</linearGradient>
</defs>
</svg>
